<svg width="199" height="61" viewBox="0 0 199 61" fill="none" xmlns="http://www.w3.org/2000/svg">
<rect y="0.910156" width="198.8" height="60" rx="16" fill="white" fill-opacity="0.07"/>
<path d="M40.5273 31.1699C40.5273 31.2676 40.3809 34.1484 43.5547 35.6621C42.9688 37.4688 40.918 41.4727 38.5254 41.4727C37.1582 41.4727 36.377 40.5938 34.8145 40.5938C33.2031 40.5938 32.3242 41.4727 31.1035 41.4727C28.7598 41.5703 26.5137 37.1758 25.8789 35.3691C25.3906 34.002 25.1953 32.6836 25.1953 31.4141C25.1953 27.0684 28.0762 24.9688 30.8105 24.9199C32.1289 24.9199 33.7891 25.8477 34.5215 25.8477C35.2051 25.8477 37.1094 24.7246 38.8672 24.8711C40.6738 25.0176 42.041 25.7012 42.9688 27.0195C41.3574 28.0449 40.5273 29.3633 40.5273 31.1699ZM37.793 23.1621C36.8164 24.2852 35.6445 24.9199 34.375 24.8223C34.2773 23.5039 34.7656 22.2832 35.6445 21.3066C36.4258 20.4277 37.793 19.6953 38.9648 19.5977C38.9648 20.1348 39.1113 21.5996 37.793 23.1621Z" fill="white"/>
<a href="https://www.figma.com/design/mprnfc4vMAmyp5QRsCJI9S?node-id=14-4098">
<rect fill="black" fill-opacity="0" y="-1.875" width="18.75" height="28.75"/>
</a>
<path d="M67.888 24.9102V16.5102H70.468C71.948 16.5102 73.036 16.8862 73.732 17.6382C74.436 18.3902 74.788 19.4222 74.788 20.7342C74.788 22.0222 74.436 23.0422 73.732 23.7942C73.036 24.5382 71.948 24.9102 70.468 24.9102H67.888ZM68.896 24.0702H70.444C71.26 24.0702 71.908 23.9382 72.388 23.6742C72.876 23.4022 73.224 23.0182 73.432 22.5222C73.64 22.0182 73.744 21.4222 73.744 20.7342C73.744 20.0302 73.64 19.4262 73.432 18.9222C73.224 18.4182 72.876 18.0302 72.388 17.7582C71.908 17.4862 71.26 17.3502 70.444 17.3502H68.896V24.0702ZM78.8955 25.0542C78.3355 25.0542 77.8315 24.9262 77.3835 24.6702C76.9355 24.4142 76.5795 24.0542 76.3155 23.5902C76.0595 23.1182 75.9315 22.5662 75.9315 21.9342C75.9315 21.3022 76.0635 20.7542 76.3275 20.2902C76.5915 19.8182 76.9475 19.4542 77.3955 19.1982C77.8515 18.9422 78.3595 18.8142 78.9195 18.8142C79.4795 18.8142 79.9835 18.9422 80.4315 19.1982C80.8795 19.4542 81.2315 19.8182 81.4875 20.2902C81.7515 20.7542 81.8835 21.3022 81.8835 21.9342C81.8835 22.5662 81.7515 23.1182 81.4875 23.5902C81.2235 24.0542 80.8635 24.4142 80.4075 24.6702C79.9595 24.9262 79.4555 25.0542 78.8955 25.0542ZM78.8955 24.1902C79.2395 24.1902 79.5595 24.1062 79.8555 23.9382C80.1515 23.7702 80.3915 23.5182 80.5755 23.1822C80.7595 22.8462 80.8515 22.4302 80.8515 21.9342C80.8515 21.4382 80.7595 21.0222 80.5755 20.6862C80.3995 20.3502 80.1635 20.0982 79.8675 19.9302C79.5715 19.7622 79.2555 19.6782 78.9195 19.6782C78.5755 19.6782 78.2555 19.7622 77.9595 19.9302C77.6635 20.0982 77.4235 20.3502 77.2395 20.6862C77.0555 21.0222 76.9635 21.4382 76.9635 21.9342C76.9635 22.4302 77.0555 22.8462 77.2395 23.1822C77.4235 23.5182 77.6595 23.7702 77.9475 23.9382C78.2435 24.1062 78.5595 24.1902 78.8955 24.1902ZM84.2624 24.9102L82.5224 18.9582H83.5304L84.7904 23.6262L86.1824 18.9582H87.3224L88.7264 23.6262L89.9744 18.9582H90.9944L89.2544 24.9102H88.2224L86.7584 20.0022L85.2944 24.9102H84.2624ZM92.1093 24.9102V18.9582H93.0213L93.0813 20.0262C93.2733 19.6502 93.5493 19.3542 93.9093 19.1382C94.2693 18.9222 94.6773 18.8142 95.1333 18.8142C95.8373 18.8142 96.3973 19.0302 96.8133 19.4622C97.2373 19.8862 97.4492 20.5422 97.4492 21.4302V24.9102H96.4413V21.5382C96.4413 20.2982 95.9293 19.6782 94.9053 19.6782C94.3933 19.6782 93.9653 19.8662 93.6213 20.2422C93.2853 20.6102 93.1173 21.1382 93.1173 21.8262V24.9102H92.1093ZM98.9764 24.9102V16.2702H99.9844V24.9102H98.9764ZM104.349 25.0542C103.789 25.0542 103.285 24.9262 102.837 24.6702C102.389 24.4142 102.033 24.0542 101.769 23.5902C101.513 23.1182 101.385 22.5662 101.385 21.9342C101.385 21.3022 101.517 20.7542 101.781 20.2902C102.045 19.8182 102.401 19.4542 102.849 19.1982C103.305 18.9422 103.813 18.8142 104.373 18.8142C104.933 18.8142 105.437 18.9422 105.885 19.1982C106.333 19.4542 106.685 19.8182 106.941 20.2902C107.205 20.7542 107.337 21.3022 107.337 21.9342C107.337 22.5662 107.205 23.1182 106.941 23.5902C106.677 24.0542 106.317 24.4142 105.861 24.6702C105.413 24.9262 104.909 25.0542 104.349 25.0542ZM104.349 24.1902C104.693 24.1902 105.013 24.1062 105.309 23.9382C105.605 23.7702 105.845 23.5182 106.029 23.1822C106.213 22.8462 106.305 22.4302 106.305 21.9342C106.305 21.4382 106.213 21.0222 106.029 20.6862C105.853 20.3502 105.617 20.0982 105.321 19.9302C105.025 19.7622 104.709 19.6782 104.373 19.6782C104.029 19.6782 103.709 19.7622 103.413 19.9302C103.117 20.0982 102.877 20.3502 102.693 20.6862C102.509 21.0222 102.417 21.4382 102.417 21.9342C102.417 22.4302 102.509 22.8462 102.693 23.1822C102.877 23.5182 103.113 23.7702 103.401 23.9382C103.697 24.1062 104.013 24.1902 104.349 24.1902ZM110.718 25.0542C110.222 25.0542 109.81 24.9702 109.482 24.8022C109.154 24.6342 108.91 24.4102 108.75 24.1302C108.59 23.8502 108.51 23.5462 108.51 23.2182C108.51 22.6102 108.742 22.1422 109.206 21.8142C109.67 21.4862 110.302 21.3222 111.102 21.3222H112.71V21.2502C112.71 20.7302 112.574 20.3382 112.302 20.0742C112.03 19.8022 111.666 19.6662 111.21 19.6662C110.818 19.6662 110.478 19.7662 110.19 19.9662C109.91 20.1582 109.734 20.4422 109.662 20.8182H108.63C108.67 20.3862 108.814 20.0222 109.062 19.7262C109.318 19.4302 109.634 19.2062 110.01 19.0542C110.386 18.8942 110.786 18.8142 111.21 18.8142C112.042 18.8142 112.666 19.0382 113.082 19.4862C113.506 19.9262 113.718 20.5142 113.718 21.2502V24.9102H112.818L112.758 23.8422C112.59 24.1782 112.342 24.4662 112.014 24.7062C111.694 24.9382 111.262 25.0542 110.718 25.0542ZM110.874 24.2022C111.258 24.2022 111.586 24.1022 111.858 23.9022C112.138 23.7022 112.35 23.4422 112.494 23.1222C112.638 22.8022 112.71 22.4662 112.71 22.1142V22.1022H111.186C110.594 22.1022 110.174 22.2062 109.926 22.4142C109.686 22.6142 109.566 22.8662 109.566 23.1702C109.566 23.4822 109.678 23.7342 109.902 23.9262C110.134 24.1102 110.458 24.2022 110.874 24.2022ZM117.93 25.0542C117.338 25.0542 116.818 24.9182 116.37 24.6462C115.93 24.3742 115.586 24.0022 115.338 23.5302C115.098 23.0582 114.978 22.5222 114.978 21.9222C114.978 21.3222 115.102 20.7902 115.35 20.3262C115.598 19.8542 115.942 19.4862 116.382 19.2222C116.822 18.9502 117.342 18.8142 117.942 18.8142C118.43 18.8142 118.862 18.9142 119.238 19.1142C119.614 19.3142 119.906 19.5942 120.114 19.9542V16.2702H121.122V24.9102H120.21L120.114 23.9262C119.922 24.2142 119.646 24.4742 119.286 24.7062C118.926 24.9382 118.474 25.0542 117.93 25.0542ZM118.038 24.1782C118.438 24.1782 118.79 24.0862 119.094 23.9022C119.406 23.7102 119.646 23.4462 119.814 23.1102C119.99 22.7742 120.078 22.3822 120.078 21.9342C120.078 21.4862 119.99 21.0942 119.814 20.7582C119.646 20.4222 119.406 20.1622 119.094 19.9782C118.79 19.7862 118.438 19.6902 118.038 19.6902C117.646 19.6902 117.294 19.7862 116.982 19.9782C116.678 20.1622 116.438 20.4222 116.262 20.7582C116.094 21.0942 116.01 21.4862 116.01 21.9342C116.01 22.3822 116.094 22.7742 116.262 23.1102C116.438 23.4462 116.678 23.7102 116.982 23.9022C117.294 24.0862 117.646 24.1782 118.038 24.1782ZM128.653 25.0542C128.093 25.0542 127.589 24.9262 127.141 24.6702C126.693 24.4142 126.337 24.0542 126.073 23.5902C125.817 23.1182 125.689 22.5662 125.689 21.9342C125.689 21.3022 125.821 20.7542 126.085 20.2902C126.349 19.8182 126.705 19.4542 127.153 19.1982C127.609 18.9422 128.117 18.8142 128.677 18.8142C129.237 18.8142 129.741 18.9422 130.189 19.1982C130.637 19.4542 130.989 19.8182 131.245 20.2902C131.509 20.7542 131.641 21.3022 131.641 21.9342C131.641 22.5662 131.509 23.1182 131.245 23.5902C130.981 24.0542 130.621 24.4142 130.165 24.6702C129.717 24.9262 129.213 25.0542 128.653 25.0542ZM128.653 24.1902C128.997 24.1902 129.317 24.1062 129.613 23.9382C129.909 23.7702 130.149 23.5182 130.333 23.1822C130.517 22.8462 130.609 22.4302 130.609 21.9342C130.609 21.4382 130.517 21.0222 130.333 20.6862C130.157 20.3502 129.921 20.0982 129.625 19.9302C129.329 19.7622 129.013 19.6782 128.677 19.6782C128.333 19.6782 128.013 19.7622 127.717 19.9302C127.421 20.0982 127.181 20.3502 126.997 20.6862C126.813 21.0222 126.721 21.4382 126.721 21.9342C126.721 22.4302 126.813 22.8462 126.997 23.1822C127.181 23.5182 127.417 23.7702 127.705 23.9382C128.001 24.1062 128.317 24.1902 128.653 24.1902ZM133.043 24.9102V18.9582H133.955L134.015 20.0262C134.207 19.6502 134.483 19.3542 134.843 19.1382C135.203 18.9222 135.611 18.8142 136.067 18.8142C136.771 18.8142 137.331 19.0302 137.747 19.4622C138.171 19.8862 138.383 20.5422 138.383 21.4302V24.9102H137.375V21.5382C137.375 20.2982 136.863 19.6782 135.839 19.6782C135.327 19.6782 134.899 19.8662 134.555 20.2422C134.219 20.6102 134.051 21.1382 134.051 21.8262V24.9102H133.043ZM145.438 24.9102C144.894 24.9102 144.466 24.7782 144.154 24.5142C143.842 24.2502 143.686 23.7742 143.686 23.0862V19.8102H142.654V18.9582H143.686L143.818 17.5302H144.694V18.9582H146.446V19.8102H144.694V23.0862C144.694 23.4622 144.77 23.7182 144.922 23.8542C145.074 23.9822 145.342 24.0462 145.726 24.0462H146.35V24.9102H145.438ZM147.726 24.9102V16.2702H148.734V19.9782C148.934 19.6102 149.218 19.3262 149.586 19.1262C149.954 18.9182 150.354 18.8142 150.786 18.8142C151.474 18.8142 152.026 19.0302 152.442 19.4622C152.858 19.8862 153.066 20.5422 153.066 21.4302V24.9102H152.07V21.5382C152.07 20.2982 151.57 19.6782 150.57 19.6782C150.05 19.6782 149.614 19.8662 149.262 20.2422C148.91 20.6102 148.734 21.1382 148.734 21.8262V24.9102H147.726ZM157.27 25.0542C156.702 25.0542 156.198 24.9262 155.758 24.6702C155.318 24.4062 154.97 24.0422 154.714 23.5782C154.466 23.1142 154.342 22.5662 154.342 21.9342C154.342 21.3102 154.466 20.7662 154.714 20.3022C154.962 19.8302 155.306 19.4662 155.746 19.2102C156.194 18.9462 156.71 18.8142 157.294 18.8142C157.87 18.8142 158.366 18.9462 158.782 19.2102C159.206 19.4662 159.53 19.8062 159.754 20.2302C159.978 20.6542 160.09 21.1102 160.09 21.5982C160.09 21.6862 160.086 21.7742 160.078 21.8622C160.078 21.9502 160.078 22.0502 160.078 22.1622H155.338C155.362 22.6182 155.466 22.9982 155.65 23.3022C155.842 23.5982 156.078 23.8222 156.358 23.9742C156.646 24.1262 156.95 24.2022 157.27 24.2022C157.686 24.2022 158.034 24.1062 158.314 23.9142C158.594 23.7222 158.798 23.4622 158.926 23.1342H159.922C159.762 23.6862 159.454 24.1462 158.998 24.5142C158.55 24.8742 157.974 25.0542 157.27 25.0542ZM157.27 19.6662C156.79 19.6662 156.362 19.8142 155.986 20.1102C155.618 20.3982 155.406 20.8222 155.35 21.3822H159.094C159.07 20.8462 158.886 20.4262 158.542 20.1222C158.198 19.8182 157.774 19.6662 157.27 19.6662Z" fill="white"/>
<a href="https://www.figma.com/design/mprnfc4vMAmyp5QRsCJI9S?node-id=14-4098">
<rect fill="black" fill-opacity="0" y="-1.812" width="93.5936" height="15.624"/>
</a>
<path d="M67.39 44.9102L71.26 34.4102H73L76.84 44.9102H75.16L74.26 42.3452H69.97L69.07 44.9102H67.39ZM70.42 41.0852H73.81L72.115 36.3002L70.42 41.0852ZM78.2443 48.2102V37.4702H79.6693L79.8343 38.6252C80.0743 38.2752 80.4043 37.9652 80.8243 37.6952C81.2443 37.4252 81.7843 37.2902 82.4443 37.2902C83.1643 37.2902 83.7993 37.4602 84.3493 37.8002C84.8993 38.1402 85.3293 38.6052 85.6393 39.1952C85.9593 39.7852 86.1193 40.4552 86.1193 41.2052C86.1193 41.9552 85.9593 42.6252 85.6393 43.2152C85.3293 43.7952 84.8993 44.2552 84.3493 44.5952C83.7993 44.9252 83.1593 45.0902 82.4293 45.0902C81.8493 45.0902 81.3343 44.9752 80.8843 44.7452C80.4443 44.5152 80.0943 44.1902 79.8343 43.7702V48.2102H78.2443ZM82.1593 43.7102C82.8393 43.7102 83.3993 43.4802 83.8393 43.0202C84.2793 42.5502 84.4993 41.9402 84.4993 41.1902C84.4993 40.7002 84.3993 40.2652 84.1993 39.8852C83.9993 39.5052 83.7243 39.2102 83.3743 39.0002C83.0243 38.7802 82.6193 38.6702 82.1593 38.6702C81.4793 38.6702 80.9193 38.9052 80.4793 39.3752C80.0493 39.8452 79.8343 40.4502 79.8343 41.1902C79.8343 41.9402 80.0493 42.5502 80.4793 43.0202C80.9193 43.4802 81.4793 43.7102 82.1593 43.7102ZM87.839 48.2102V37.4702H89.264L89.429 38.6252C89.669 38.2752 89.999 37.9652 90.419 37.6952C90.839 37.4252 91.379 37.2902 92.039 37.2902C92.759 37.2902 93.394 37.4602 93.944 37.8002C94.494 38.1402 94.924 38.6052 95.234 39.1952C95.554 39.7852 95.714 40.4552 95.714 41.2052C95.714 41.9552 95.554 42.6252 95.234 43.2152C94.924 43.7952 94.494 44.2552 93.944 44.5952C93.394 44.9252 92.754 45.0902 92.024 45.0902C91.444 45.0902 90.929 44.9752 90.479 44.7452C90.039 44.5152 89.689 44.1902 89.429 43.7702V48.2102H87.839ZM91.754 43.7102C92.434 43.7102 92.994 43.4802 93.434 43.0202C93.874 42.5502 94.094 41.9402 94.094 41.1902C94.094 40.7002 93.994 40.2652 93.794 39.8852C93.594 39.5052 93.319 39.2102 92.969 39.0002C92.619 38.7802 92.214 38.6702 91.754 38.6702C91.074 38.6702 90.514 38.9052 90.074 39.3752C89.644 39.8452 89.429 40.4502 89.429 41.1902C89.429 41.9402 89.644 42.5502 90.074 43.0202C90.514 43.4802 91.074 43.7102 91.754 43.7102ZM97.4337 44.9102V34.1102H99.0237V44.9102H97.4337ZM104.517 45.0902C103.787 45.0902 103.137 44.9302 102.567 44.6102C102.007 44.2802 101.567 43.8252 101.247 43.2452C100.927 42.6652 100.767 41.9902 100.767 41.2202C100.767 40.4402 100.922 39.7552 101.232 39.1652C101.552 38.5752 101.992 38.1152 102.552 37.7852C103.122 37.4552 103.782 37.2902 104.532 37.2902C105.262 37.2902 105.897 37.4552 106.437 37.7852C106.977 38.1052 107.397 38.5352 107.697 39.0752C107.997 39.6152 108.147 40.2102 108.147 40.8602C108.147 40.9602 108.142 41.0702 108.132 41.1902C108.132 41.3002 108.127 41.4252 108.117 41.5652H102.327C102.377 42.2852 102.612 42.8352 103.032 43.2152C103.462 43.5852 103.957 43.7702 104.517 43.7702C104.967 43.7702 105.342 43.6702 105.642 43.4702C105.952 43.2602 106.182 42.9802 106.332 42.6302H107.922C107.722 43.3302 107.322 43.9152 106.722 44.3852C106.132 44.8552 105.397 45.0902 104.517 45.0902ZM104.517 38.5952C103.987 38.5952 103.517 38.7552 103.107 39.0752C102.697 39.3852 102.447 39.8552 102.357 40.4852H106.557C106.527 39.9052 106.322 39.4452 105.942 39.1052C105.562 38.7652 105.087 38.5952 104.517 38.5952ZM117.101 45.0902C116.331 45.0902 115.656 44.9552 115.076 44.6852C114.496 44.4152 114.041 44.0302 113.711 43.5302C113.391 43.0302 113.226 42.4352 113.216 41.7452H114.896C114.906 42.3052 115.101 42.7802 115.481 43.1702C115.861 43.5602 116.396 43.7552 117.086 43.7552C117.696 43.7552 118.171 43.6102 118.511 43.3202C118.861 43.0202 119.036 42.6402 119.036 42.1802C119.036 41.8102 118.951 41.5102 118.781 41.2802C118.621 41.0502 118.396 40.8602 118.106 40.7102C117.826 40.5602 117.501 40.4252 117.131 40.3052C116.761 40.1852 116.371 40.0552 115.961 39.9152C115.151 39.6452 114.541 39.2952 114.131 38.8652C113.731 38.4352 113.531 37.8702 113.531 37.1702C113.521 36.5802 113.656 36.0652 113.936 35.6252C114.226 35.1852 114.626 34.8452 115.136 34.6052C115.656 34.3552 116.261 34.2302 116.951 34.2302C117.631 34.2302 118.226 34.3552 118.736 34.6052C119.256 34.8552 119.661 35.2052 119.951 35.6552C120.241 36.0952 120.391 36.6102 120.401 37.2002H118.721C118.721 36.9302 118.651 36.6752 118.511 36.4352C118.371 36.1852 118.166 35.9802 117.896 35.8202C117.626 35.6602 117.296 35.5802 116.906 35.5802C116.406 35.5702 115.991 35.6952 115.661 35.9552C115.341 36.2152 115.181 36.5752 115.181 37.0352C115.181 37.4452 115.301 37.7602 115.541 37.9802C115.781 38.2002 116.111 38.3852 116.531 38.5352C116.951 38.6752 117.431 38.8402 117.971 39.0302C118.491 39.2002 118.956 39.4052 119.366 39.6452C119.776 39.8852 120.101 40.2002 120.341 40.5902C120.591 40.9802 120.716 41.4752 120.716 42.0752C120.716 42.6052 120.581 43.1002 120.311 43.5602C120.041 44.0102 119.636 44.3802 119.096 44.6702C118.556 44.9502 117.891 45.0902 117.101 45.0902ZM125.515 44.9102C124.785 44.9102 124.205 44.7352 123.775 44.3852C123.345 44.0252 123.13 43.3902 123.13 42.4802V38.8052H121.855V37.4702H123.13L123.325 35.5802H124.72V37.4702H126.82V38.8052H124.72V42.4802C124.72 42.8902 124.805 43.1752 124.975 43.3352C125.155 43.4852 125.46 43.5602 125.89 43.5602H126.745V44.9102H125.515ZM131.749 45.0902C131.039 45.0902 130.399 44.9302 129.829 44.6102C129.269 44.2802 128.824 43.8252 128.494 43.2452C128.164 42.6552 127.999 41.9702 127.999 41.1902C127.999 40.4102 128.164 39.7302 128.494 39.1502C128.834 38.5602 129.289 38.1052 129.859 37.7852C130.429 37.4552 131.064 37.2902 131.764 37.2902C132.474 37.2902 133.109 37.4552 133.669 37.7852C134.239 38.1052 134.689 38.5602 135.019 39.1502C135.359 39.7302 135.529 40.4102 135.529 41.1902C135.529 41.9702 135.359 42.6552 135.019 43.2452C134.689 43.8252 134.239 44.2802 133.669 44.6102C133.099 44.9302 132.459 45.0902 131.749 45.0902ZM131.749 43.7252C132.129 43.7252 132.479 43.6302 132.799 43.4402C133.129 43.2502 133.394 42.9702 133.594 42.6002C133.794 42.2202 133.894 41.7502 133.894 41.1902C133.894 40.6302 133.794 40.1652 133.594 39.7952C133.404 39.4152 133.144 39.1302 132.814 38.9402C132.494 38.7502 132.144 38.6552 131.764 38.6552C131.384 38.6552 131.029 38.7502 130.699 38.9402C130.379 39.1302 130.119 39.4152 129.919 39.7952C129.719 40.1652 129.619 40.6302 129.619 41.1902C129.619 41.7502 129.719 42.2202 129.919 42.6002C130.119 42.9702 130.379 43.2502 130.699 43.4402C131.019 43.6302 131.369 43.7252 131.749 43.7252ZM137.248 44.9102V37.4702H138.673L138.808 38.8802C139.068 38.3902 139.428 38.0052 139.888 37.7252C140.358 37.4352 140.923 37.2902 141.583 37.2902V38.9552H141.148C140.708 38.9552 140.313 39.0302 139.963 39.1802C139.623 39.3202 139.348 39.5652 139.138 39.9152C138.938 40.2552 138.838 40.7302 138.838 41.3402V44.9102H137.248ZM146.221 45.0902C145.491 45.0902 144.841 44.9302 144.271 44.6102C143.711 44.2802 143.271 43.8252 142.951 43.2452C142.631 42.6652 142.471 41.9902 142.471 41.2202C142.471 40.4402 142.626 39.7552 142.936 39.1652C143.256 38.5752 143.696 38.1152 144.256 37.7852C144.826 37.4552 145.486 37.2902 146.236 37.2902C146.966 37.2902 147.601 37.4552 148.141 37.7852C148.681 38.1052 149.101 38.5352 149.401 39.0752C149.701 39.6152 149.851 40.2102 149.851 40.8602C149.851 40.9602 149.846 41.0702 149.836 41.1902C149.836 41.3002 149.831 41.4252 149.821 41.5652H144.031C144.081 42.2852 144.316 42.8352 144.736 43.2152C145.166 43.5852 145.661 43.7702 146.221 43.7702C146.671 43.7702 147.046 43.6702 147.346 43.4702C147.656 43.2602 147.886 42.9802 148.036 42.6302H149.626C149.426 43.3302 149.026 43.9152 148.426 44.3852C147.836 44.8552 147.101 45.0902 146.221 45.0902ZM146.221 38.5952C145.691 38.5952 145.221 38.7552 144.811 39.0752C144.401 39.3852 144.151 39.8552 144.061 40.4852H148.261C148.231 39.9052 148.026 39.4452 147.646 39.1052C147.266 38.7652 146.791 38.5952 146.221 38.5952Z" fill="white"/>
<a href="https://www.figma.com/design/mprnfc4vMAmyp5QRsCJI9S?node-id=14-4098">
<rect fill="black" fill-opacity="0" y="-2.265" width="83.4963" height="19.53"/>
</a>
</svg>
