<svg width="199" height="60" viewBox="0 0 199 60" fill="none" xmlns="http://www.w3.org/2000/svg">
<rect x="0.189941" width="198.8" height="60" rx="16" fill="white" fill-opacity="0.07"/>
<path d="M41.0591 28.5996L30.2681 17.7598L43.9888 25.6699L41.0591 28.5996ZM27.4849 17.125L39.9849 29.625L27.4849 42.125C26.8501 41.832 26.4106 41.1973 26.4106 40.416V18.8828C26.4106 18.1016 26.8501 17.4668 27.4849 17.125ZM48.2368 28.1602C49.1646 28.8438 49.1646 30.4551 48.2856 31.1387L45.356 32.7988L42.1333 29.625L45.356 26.5L48.2368 28.1602ZM30.2681 41.4902L41.0591 30.6992L43.9888 33.6289L30.2681 41.4902Z" fill="white"/>
<a href="https://www.figma.com/design/mprnfc4vMAmyp5QRsCJI9S?node-id=14-4098">
<rect fill="black" fill-opacity="0" y="-1.875" width="25" height="28.75"/>
</a>
<path d="M71.6899 24.144C70.9059 24.144 70.2179 23.964 69.6259 23.604C69.0339 23.236 68.5739 22.728 68.2459 22.08C67.9179 21.424 67.7539 20.668 67.7539 19.812C67.7539 18.956 67.9179 18.2 68.2459 17.544C68.5819 16.888 69.0539 16.376 69.6619 16.008C70.2779 15.64 71.0019 15.456 71.8339 15.456C72.7779 15.456 73.5619 15.684 74.1859 16.14C74.8179 16.596 75.2259 17.224 75.4099 18.024H74.2459C74.1339 17.52 73.8659 17.12 73.4419 16.824C73.0259 16.528 72.4899 16.38 71.8339 16.38C71.2179 16.38 70.6819 16.52 70.2259 16.8C69.7699 17.072 69.4139 17.464 69.1579 17.976C68.9099 18.488 68.7859 19.1 68.7859 19.812C68.7859 20.524 68.9099 21.136 69.1579 21.648C69.4059 22.16 69.7499 22.556 70.1899 22.836C70.6299 23.108 71.1419 23.244 71.7259 23.244C72.6219 23.244 73.2979 22.984 73.7539 22.464C74.2099 21.936 74.4699 21.216 74.5339 20.304H72.1099V19.512H75.5659V24H74.6419L74.5579 22.62C74.2539 23.108 73.8819 23.484 73.4419 23.748C73.0019 24.012 72.4179 24.144 71.6899 24.144ZM79.776 24.144C79.208 24.144 78.704 24.016 78.264 23.76C77.824 23.496 77.476 23.132 77.22 22.668C76.972 22.204 76.848 21.656 76.848 21.024C76.848 20.4 76.972 19.856 77.22 19.392C77.468 18.92 77.812 18.556 78.252 18.3C78.7 18.036 79.216 17.904 79.8 17.904C80.376 17.904 80.872 18.036 81.288 18.3C81.712 18.556 82.036 18.896 82.26 19.32C82.484 19.744 82.596 20.2 82.596 20.688C82.596 20.776 82.592 20.864 82.584 20.952C82.584 21.04 82.584 21.14 82.584 21.252H77.844C77.868 21.708 77.972 22.088 78.156 22.392C78.348 22.688 78.584 22.912 78.864 23.064C79.152 23.216 79.456 23.292 79.776 23.292C80.192 23.292 80.54 23.196 80.82 23.004C81.1 22.812 81.304 22.552 81.432 22.224H82.428C82.268 22.776 81.96 23.236 81.504 23.604C81.056 23.964 80.48 24.144 79.776 24.144ZM79.776 18.756C79.296 18.756 78.868 18.904 78.492 19.2C78.124 19.488 77.912 19.912 77.856 20.472H81.6C81.576 19.936 81.392 19.516 81.048 19.212C80.704 18.908 80.28 18.756 79.776 18.756ZM86.0848 24C85.5408 24 85.1128 23.868 84.8008 23.604C84.4888 23.34 84.3328 22.864 84.3328 22.176V18.9H83.3008V18.048H84.3328L84.4648 16.62H85.3408V18.048H87.0928V18.9H85.3408V22.176C85.3408 22.552 85.4168 22.808 85.5688 22.944C85.7208 23.072 85.9888 23.136 86.3728 23.136H86.9968V24H86.0848ZM92.1612 16.728C91.9612 16.728 91.7932 16.664 91.6572 16.536C91.5292 16.4 91.4652 16.232 91.4652 16.032C91.4652 15.84 91.5292 15.68 91.6572 15.552C91.7932 15.424 91.9612 15.36 92.1612 15.36C92.3532 15.36 92.5172 15.424 92.6532 15.552C92.7892 15.68 92.8572 15.84 92.8572 16.032C92.8572 16.232 92.7892 16.4 92.6532 16.536C92.5172 16.664 92.3532 16.728 92.1612 16.728ZM91.6572 24V18.048H92.6652V24H91.6572ZM94.4203 24V18.048H95.3323L95.3923 19.116C95.5843 18.74 95.8603 18.444 96.2203 18.228C96.5803 18.012 96.9883 17.904 97.4443 17.904C98.1483 17.904 98.7083 18.12 99.1243 18.552C99.5483 18.976 99.7603 19.632 99.7603 20.52V24H98.7523V20.628C98.7523 19.388 98.2403 18.768 97.2163 18.768C96.7043 18.768 96.2763 18.956 95.9323 19.332C95.5963 19.7 95.4283 20.228 95.4283 20.916V24H94.4203ZM107.175 24.144C106.615 24.144 106.111 24.016 105.663 23.76C105.215 23.504 104.859 23.144 104.595 22.68C104.339 22.208 104.211 21.656 104.211 21.024C104.211 20.392 104.343 19.844 104.607 19.38C104.871 18.908 105.227 18.544 105.675 18.288C106.131 18.032 106.639 17.904 107.199 17.904C107.759 17.904 108.263 18.032 108.711 18.288C109.159 18.544 109.511 18.908 109.767 19.38C110.031 19.844 110.163 20.392 110.163 21.024C110.163 21.656 110.031 22.208 109.767 22.68C109.503 23.144 109.143 23.504 108.687 23.76C108.239 24.016 107.735 24.144 107.175 24.144ZM107.175 23.28C107.519 23.28 107.839 23.196 108.135 23.028C108.431 22.86 108.671 22.608 108.855 22.272C109.039 21.936 109.131 21.52 109.131 21.024C109.131 20.528 109.039 20.112 108.855 19.776C108.679 19.44 108.443 19.188 108.147 19.02C107.851 18.852 107.535 18.768 107.199 18.768C106.855 18.768 106.535 18.852 106.239 19.02C105.943 19.188 105.703 19.44 105.519 19.776C105.335 20.112 105.243 20.528 105.243 21.024C105.243 21.52 105.335 21.936 105.519 22.272C105.703 22.608 105.939 22.86 106.227 23.028C106.523 23.196 106.839 23.28 107.175 23.28ZM111.565 24V18.048H112.477L112.537 19.116C112.729 18.74 113.005 18.444 113.365 18.228C113.725 18.012 114.133 17.904 114.589 17.904C115.293 17.904 115.853 18.12 116.269 18.552C116.693 18.976 116.905 19.632 116.905 20.52V24H115.897V20.628C115.897 19.388 115.385 18.768 114.361 18.768C113.849 18.768 113.421 18.956 113.077 19.332C112.741 19.7 112.573 20.228 112.573 20.916V24H111.565Z" fill="white"/>
<a href="https://www.figma.com/design/mprnfc4vMAmyp5QRsCJI9S?node-id=14-4098">
<rect fill="black" fill-opacity="0" y="-1.812" width="50.4109" height="15.624"/>
</a>
<path d="M72.8149 44.18C71.8249 44.18 70.9599 43.955 70.2199 43.505C69.4799 43.055 68.9049 42.425 68.4949 41.615C68.0849 40.805 67.8799 39.86 67.8799 38.78C67.8799 37.71 68.0899 36.765 68.5099 35.945C68.9299 35.125 69.5249 34.485 70.2949 34.025C71.0749 33.555 71.9949 33.32 73.0549 33.32C74.2549 33.32 75.2549 33.61 76.0549 34.19C76.8549 34.77 77.3749 35.57 77.6149 36.59H75.8149C75.6549 36.03 75.3399 35.59 74.8699 35.27C74.3999 34.95 73.7949 34.79 73.0549 34.79C71.9549 34.79 71.0899 35.145 70.4599 35.855C69.8299 36.565 69.5149 37.545 69.5149 38.795C69.5149 40.045 69.8249 41.02 70.4449 41.72C71.0649 42.42 71.8899 42.77 72.9199 42.77C73.9599 42.77 74.7399 42.475 75.2599 41.885C75.7899 41.295 76.0999 40.51 76.1899 39.53H73.3399V38.3H77.7949V44H76.3399L76.2049 42.455C75.8549 43.005 75.4149 43.43 74.8849 43.73C74.3549 44.03 73.6649 44.18 72.8149 44.18ZM83.1447 44.18C82.4347 44.18 81.7947 44.02 81.2247 43.7C80.6647 43.37 80.2197 42.915 79.8897 42.335C79.5597 41.745 79.3947 41.06 79.3947 40.28C79.3947 39.5 79.5597 38.82 79.8897 38.24C80.2297 37.65 80.6847 37.195 81.2547 36.875C81.8247 36.545 82.4597 36.38 83.1597 36.38C83.8697 36.38 84.5047 36.545 85.0647 36.875C85.6347 37.195 86.0847 37.65 86.4147 38.24C86.7547 38.82 86.9247 39.5 86.9247 40.28C86.9247 41.06 86.7547 41.745 86.4147 42.335C86.0847 42.915 85.6347 43.37 85.0647 43.7C84.4947 44.02 83.8547 44.18 83.1447 44.18ZM83.1447 42.815C83.5247 42.815 83.8747 42.72 84.1947 42.53C84.5247 42.34 84.7897 42.06 84.9897 41.69C85.1897 41.31 85.2897 40.84 85.2897 40.28C85.2897 39.72 85.1897 39.255 84.9897 38.885C84.7997 38.505 84.5397 38.22 84.2097 38.03C83.8897 37.84 83.5397 37.745 83.1597 37.745C82.7797 37.745 82.4247 37.84 82.0947 38.03C81.7747 38.22 81.5147 38.505 81.3147 38.885C81.1147 39.255 81.0147 39.72 81.0147 40.28C81.0147 40.84 81.1147 41.31 81.3147 41.69C81.5147 42.06 81.7747 42.34 82.0947 42.53C82.4147 42.72 82.7647 42.815 83.1447 42.815ZM92.1242 44.18C91.4142 44.18 90.7742 44.02 90.2042 43.7C89.6442 43.37 89.1992 42.915 88.8692 42.335C88.5392 41.745 88.3742 41.06 88.3742 40.28C88.3742 39.5 88.5392 38.82 88.8692 38.24C89.2092 37.65 89.6642 37.195 90.2342 36.875C90.8042 36.545 91.4392 36.38 92.1392 36.38C92.8492 36.38 93.4842 36.545 94.0442 36.875C94.6142 37.195 95.0642 37.65 95.3942 38.24C95.7342 38.82 95.9042 39.5 95.9042 40.28C95.9042 41.06 95.7342 41.745 95.3942 42.335C95.0642 42.915 94.6142 43.37 94.0442 43.7C93.4742 44.02 92.8342 44.18 92.1242 44.18ZM92.1242 42.815C92.5042 42.815 92.8542 42.72 93.1742 42.53C93.5042 42.34 93.7692 42.06 93.9692 41.69C94.1692 41.31 94.2692 40.84 94.2692 40.28C94.2692 39.72 94.1692 39.255 93.9692 38.885C93.7792 38.505 93.5192 38.22 93.1892 38.03C92.8692 37.84 92.5192 37.745 92.1392 37.745C91.7592 37.745 91.4042 37.84 91.0742 38.03C90.7542 38.22 90.4942 38.505 90.2942 38.885C90.0942 39.255 89.9942 39.72 89.9942 40.28C89.9942 40.84 90.0942 41.31 90.2942 41.69C90.4942 42.06 90.7542 42.34 91.0742 42.53C91.3942 42.72 91.7442 42.815 92.1242 42.815ZM100.273 41.72C99.8831 41.72 99.5231 41.675 99.1931 41.585L98.5481 42.215C98.6581 42.285 98.7931 42.345 98.9531 42.395C99.1131 42.445 99.3381 42.49 99.6281 42.53C99.9181 42.57 100.313 42.61 100.813 42.65C101.803 42.74 102.518 42.98 102.958 43.37C103.398 43.75 103.618 44.26 103.618 44.9C103.618 45.34 103.498 45.755 103.258 46.145C103.028 46.545 102.663 46.865 102.163 47.105C101.673 47.355 101.043 47.48 100.273 47.48C99.2331 47.48 98.3881 47.28 97.7381 46.88C97.0981 46.49 96.7781 45.895 96.7781 45.095C96.7781 44.785 96.8581 44.475 97.0181 44.165C97.1881 43.865 97.4531 43.58 97.8131 43.31C97.6031 43.22 97.4181 43.125 97.2581 43.025C97.1081 42.915 96.9731 42.805 96.8531 42.695V42.335L98.1431 41.015C97.5631 40.515 97.2731 39.86 97.2731 39.05C97.2731 38.56 97.3881 38.115 97.6181 37.715C97.8581 37.305 98.2031 36.98 98.6531 36.74C99.1031 36.5 99.6431 36.38 100.273 36.38C100.693 36.38 101.083 36.44 101.443 36.56H104.218V37.61L102.898 37.685C103.138 38.095 103.258 38.55 103.258 39.05C103.258 39.55 103.138 40 102.898 40.4C102.668 40.8 102.328 41.12 101.878 41.36C101.438 41.6 100.903 41.72 100.273 41.72ZM100.273 40.475C100.733 40.475 101.103 40.355 101.383 40.115C101.673 39.865 101.818 39.515 101.818 39.065C101.818 38.605 101.673 38.255 101.383 38.015C101.103 37.775 100.733 37.655 100.273 37.655C99.8031 37.655 99.4231 37.775 99.1331 38.015C98.8531 38.255 98.7131 38.605 98.7131 39.065C98.7131 39.515 98.8531 39.865 99.1331 40.115C99.4231 40.355 99.8031 40.475 100.273 40.475ZM98.2781 44.945C98.2781 45.375 98.4681 45.695 98.8481 45.905C99.2281 46.125 99.7031 46.235 100.273 46.235C100.823 46.235 101.268 46.115 101.608 45.875C101.948 45.645 102.118 45.335 102.118 44.945C102.118 44.655 102.003 44.405 101.773 44.195C101.543 43.995 101.108 43.87 100.468 43.82C99.9881 43.79 99.5631 43.745 99.1931 43.685C98.8431 43.875 98.6031 44.08 98.4731 44.3C98.3431 44.52 98.2781 44.735 98.2781 44.945ZM105.636 44V33.2H107.226V44H105.636ZM112.72 44.18C111.99 44.18 111.34 44.02 110.77 43.7C110.21 43.37 109.77 42.915 109.45 42.335C109.13 41.755 108.97 41.08 108.97 40.31C108.97 39.53 109.125 38.845 109.435 38.255C109.755 37.665 110.195 37.205 110.755 36.875C111.325 36.545 111.985 36.38 112.735 36.38C113.465 36.38 114.1 36.545 114.64 36.875C115.18 37.195 115.6 37.625 115.9 38.165C116.2 38.705 116.35 39.3 116.35 39.95C116.35 40.05 116.345 40.16 116.335 40.28C116.335 40.39 116.33 40.515 116.32 40.655H110.53C110.58 41.375 110.815 41.925 111.235 42.305C111.665 42.675 112.16 42.86 112.72 42.86C113.17 42.86 113.545 42.76 113.845 42.56C114.155 42.35 114.385 42.07 114.535 41.72H116.125C115.925 42.42 115.525 43.005 114.925 43.475C114.335 43.945 113.6 44.18 112.72 44.18ZM112.72 37.685C112.19 37.685 111.72 37.845 111.31 38.165C110.9 38.475 110.65 38.945 110.56 39.575H114.76C114.73 38.995 114.525 38.535 114.145 38.195C113.765 37.855 113.29 37.685 112.72 37.685ZM121.839 44V33.5H125.514C126.334 33.5 127.014 33.64 127.554 33.92C128.094 34.19 128.494 34.565 128.754 35.045C129.024 35.515 129.159 36.05 129.159 36.65C129.159 37.22 129.029 37.745 128.769 38.225C128.519 38.695 128.124 39.07 127.584 39.35C127.044 39.63 126.354 39.77 125.514 39.77H123.429V44H121.839ZM123.429 38.465H125.439C126.189 38.465 126.724 38.305 127.044 37.985C127.374 37.655 127.539 37.21 127.539 36.65C127.539 36.07 127.374 35.62 127.044 35.3C126.724 34.97 126.189 34.805 125.439 34.805H123.429V38.465ZM130.671 44V33.2H132.261V44H130.671ZM136.794 44.18C136.164 44.18 135.644 44.075 135.234 43.865C134.824 43.655 134.519 43.38 134.319 43.04C134.119 42.69 134.019 42.31 134.019 41.9C134.019 41.18 134.299 40.61 134.859 40.19C135.419 39.77 136.219 39.56 137.259 39.56H139.209V39.425C139.209 38.845 139.049 38.41 138.729 38.12C138.419 37.83 138.014 37.685 137.514 37.685C137.074 37.685 136.689 37.795 136.359 38.015C136.039 38.225 135.844 38.54 135.774 38.96H134.184C134.234 38.42 134.414 37.96 134.724 37.58C135.044 37.19 135.444 36.895 135.924 36.695C136.414 36.485 136.949 36.38 137.529 36.38C138.569 36.38 139.374 36.655 139.944 37.205C140.514 37.745 140.799 38.485 140.799 39.425V44H139.419L139.284 42.725C139.074 43.135 138.769 43.48 138.369 43.76C137.969 44.04 137.444 44.18 136.794 44.18ZM137.109 42.89C137.539 42.89 137.899 42.79 138.189 42.59C138.489 42.38 138.719 42.105 138.879 41.765C139.049 41.425 139.154 41.05 139.194 40.64H137.424C136.794 40.64 136.344 40.75 136.074 40.97C135.814 41.19 135.684 41.465 135.684 41.795C135.684 42.135 135.809 42.405 136.059 42.605C136.319 42.795 136.669 42.89 137.109 42.89ZM143.289 47.3L145.074 43.385H144.639L141.699 36.56H143.424L145.704 42.065L148.089 36.56H149.769L144.969 47.3H143.289Z" fill="white"/>
<a href="https://www.figma.com/design/mprnfc4vMAmyp5QRsCJI9S?node-id=14-4098">
<rect fill="black" fill-opacity="0" y="-2.265" width="82.8786" height="19.53"/>
</a>
</svg>
