<svg width="212" height="40" viewBox="0 0 212 40" fill="none" xmlns="http://www.w3.org/2000/svg">
<path d="M23.8287 20.3125H21.6314V26.875H18.7017V20.3125H16.2994V17.6172H18.7017V15.5371C18.7017 13.1934 20.108 11.875 22.2467 11.875C23.2721 11.875 24.356 12.0801 24.356 12.0801V14.3945H23.1549C21.983 14.3945 21.6314 15.0977 21.6314 15.8594V17.6172H24.2389L23.8287 20.3125Z" fill="white"/>
<a href="https://www.figma.com/design/mprnfc4vMAmyp5QRsCJI9S?node-id=14-4098">
<rect fill="black" fill-opacity="0" x="0.154875" y="-1.125" width="9.375" height="17.25"/>
</a>
<path d="M75.3247 16.3281C75.3247 16.4746 75.3247 16.5918 75.3247 16.7383C75.3247 20.8105 72.2485 25.4688 66.5942 25.4688C64.8364 25.4688 63.2251 24.9707 61.8774 24.0918C62.1118 24.1211 62.3462 24.1504 62.6099 24.1504C64.0454 24.1504 65.3638 23.6523 66.4185 22.832C65.0708 22.8027 63.9282 21.9238 63.5474 20.6934C63.7524 20.7227 63.9282 20.752 64.1333 20.752C64.397 20.752 64.6899 20.6934 64.9243 20.6348C63.5181 20.3418 62.4634 19.1113 62.4634 17.6172V17.5879C62.8735 17.8223 63.3716 17.9395 63.8696 17.9688C63.02 17.4121 62.4927 16.4746 62.4927 15.4199C62.4927 14.834 62.6392 14.3066 62.9028 13.8672C64.4263 15.7129 66.7114 16.9434 69.2603 17.0898C69.2017 16.8555 69.1724 16.6211 69.1724 16.3867C69.1724 14.6875 70.5493 13.3105 72.2485 13.3105C73.1274 13.3105 73.9185 13.6621 74.5044 14.2773C75.1782 14.1309 75.8521 13.8672 76.438 13.5156C76.2036 14.248 75.7349 14.834 75.0903 15.2148C75.7056 15.1562 76.3208 14.9805 76.8481 14.7461C76.438 15.3613 75.9106 15.8887 75.3247 16.3281Z" fill="white"/>
<a href="https://www.figma.com/design/mprnfc4vMAmyp5QRsCJI9S?node-id=14-4098">
<rect fill="black" fill-opacity="0" x="0.1875" y="-1.125" width="15" height="17.25"/>
</a>
<path d="M118.371 16.0059C120.216 16.0059 121.74 17.5293 121.74 19.375C121.74 21.25 120.216 22.7441 118.371 22.7441C116.496 22.7441 115.002 21.25 115.002 19.375C115.002 17.5293 116.496 16.0059 118.371 16.0059ZM118.371 21.5723C119.572 21.5723 120.539 20.6055 120.539 19.375C120.539 18.1738 119.572 17.207 118.371 17.207C117.14 17.207 116.173 18.1738 116.173 19.375C116.173 20.6055 117.17 21.5723 118.371 21.5723ZM122.648 15.8887C122.648 16.3281 122.296 16.6797 121.857 16.6797C121.418 16.6797 121.066 16.3281 121.066 15.8887C121.066 15.4492 121.418 15.0977 121.857 15.0977C122.296 15.0977 122.648 15.4492 122.648 15.8887ZM124.875 16.6797C124.933 17.7637 124.933 21.0156 124.875 22.0996C124.816 23.1543 124.582 24.0625 123.82 24.8535C123.058 25.6152 122.121 25.8496 121.066 25.9082C119.982 25.9668 116.73 25.9668 115.646 25.9082C114.591 25.8496 113.683 25.6152 112.892 24.8535C112.13 24.0625 111.896 23.1543 111.837 22.0996C111.779 21.0156 111.779 17.7637 111.837 16.6797C111.896 15.625 112.13 14.6875 112.892 13.9258C113.683 13.1641 114.591 12.9297 115.646 12.8711C116.73 12.8125 119.982 12.8125 121.066 12.8711C122.121 12.9297 123.058 13.1641 123.82 13.9258C124.582 14.6875 124.816 15.625 124.875 16.6797ZM123.468 23.2422C123.82 22.3926 123.732 20.3418 123.732 19.375C123.732 18.4375 123.82 16.3867 123.468 15.5078C123.234 14.9512 122.795 14.4824 122.238 14.2773C121.359 13.9258 119.308 14.0137 118.371 14.0137C117.404 14.0137 115.353 13.9258 114.504 14.2773C113.918 14.5117 113.478 14.9512 113.244 15.5078C112.892 16.3867 112.98 18.4375 112.98 19.375C112.98 20.3418 112.892 22.3926 113.244 23.2422C113.478 23.8281 113.918 24.2676 114.504 24.502C115.353 24.8535 117.404 24.7656 118.371 24.7656C119.308 24.7656 121.359 24.8535 122.238 24.502C122.795 24.2676 123.263 23.8281 123.468 23.2422Z" fill="white"/>
<a href="https://www.figma.com/design/mprnfc4vMAmyp5QRsCJI9S?node-id=14-4098">
<rect fill="black" fill-opacity="0" x="0.178312" y="-1.125" width="13.125" height="17.25"/>
</a>
<path d="M163.738 25H161.013V16.2402H163.738V25ZM162.361 15.0684C161.511 15.0684 160.808 14.3359 160.808 13.457C160.808 12.6074 161.511 11.9043 162.361 11.9043C163.24 11.9043 163.943 12.6074 163.943 13.457C163.943 14.3359 163.24 15.0684 162.361 15.0684ZM173.904 25H171.209V20.752C171.209 19.7266 171.179 18.4375 169.773 18.4375C168.367 18.4375 168.162 19.5215 168.162 20.6641V25H165.437V16.2402H168.045V17.4414H168.074C168.455 16.7676 169.334 16.0352 170.652 16.0352C173.406 16.0352 173.933 17.8516 173.933 20.1953V25H173.904Z" fill="white"/>
<a href="https://www.figma.com/design/mprnfc4vMAmyp5QRsCJI9S?node-id=14-4098">
<rect fill="black" fill-opacity="0" x="0.178312" y="-1.125" width="13.125" height="17.25"/>
</a>
</svg>
