<svg width="15" height="15" viewBox="0 0 15 15" fill="none" xmlns="http://www.w3.org/2000/svg">
<path d="M13.9107 0.109863H5.35513C5.14017 0.109863 4.96623 0.283806 4.96623 0.498764C4.96623 0.713722 5.14017 0.887665 5.35513 0.887665H12.9719L0.413502 13.4461C0.26158 13.598 0.26158 13.8441 0.413502 13.996C0.489445 14.0719 0.588976 14.1099 0.688471 14.1099C0.787966 14.1099 0.887461 14.0719 0.96344 13.996L13.5218 1.43756V9.05433C13.5218 9.26929 13.6957 9.44323 13.9107 9.44323C14.1257 9.44323 14.2996 9.26929 14.2996 9.05433V0.498764C14.2996 0.283806 14.1256 0.109863 13.9107 0.109863Z" fill="white"/>
</svg>
