<svg width="27" height="35" viewBox="0 0 27 35" fill="none" xmlns="http://www.w3.org/2000/svg">
<mask id="mask0_1_912" style="mask-type:luminance" maskUnits="userSpaceOnUse" x="1" y="5" width="26" height="26">
<path d="M26.4285 5.34137H1.17139V30.5985H26.4285V5.34137Z" fill="white"/>
</mask>
<g mask="url(#mask0_1_912)">
<path d="M22.8286 14.9681H20.8149C20.142 13.9801 19.2467 13.1542 18.2037 12.5652C17.0357 11.9056 15.7094 11.557 14.3682 11.557H13.8C13.3877 11.557 13.0536 11.8911 13.0536 12.3033V14.9681H4.77135C2.95287 14.9681 1.44598 16.3238 1.20569 18.0773C1.20299 18.0942 1.20068 18.1112 1.19914 18.1286C1.1816 18.2729 1.17139 18.4193 1.17139 18.5682V21.4219C1.17139 21.8341 1.50552 22.1682 1.9177 22.1682H4.52894C4.86095 23.4508 6.02811 24.4006 7.41303 24.4006C8.79793 24.4006 9.96511 23.4508 10.2971 22.1682H17.3028C17.635 23.4508 18.802 24.4006 20.1869 24.4006C21.5718 24.4006 22.7388 23.4508 23.071 22.1682H25.6822C26.0944 22.1682 26.4285 21.8341 26.4285 21.4219V18.5682C26.4285 16.5831 24.8136 14.9681 22.8286 14.9681ZM14.5463 13.0523C16.1957 13.0996 17.7603 13.803 18.8951 14.9681H14.5463V13.0523ZM2.66402 18.9386H3.81673C4.2289 18.9386 4.56304 18.6045 4.56304 18.1923C4.56304 17.7802 4.2289 17.446 3.81673 17.446H2.98909C3.36273 16.8546 4.02176 16.4609 4.77135 16.4609H13.0536V20.6756H10.2971C9.96488 19.393 8.79793 18.443 7.41303 18.443C6.02811 18.443 4.86114 19.393 4.52894 20.6756H2.66402V18.9386ZM8.89911 21.4219C8.89911 22.2415 8.23254 22.908 7.41303 22.908C6.59349 22.908 5.92695 22.2415 5.92695 21.4219C5.92695 20.6024 6.59349 19.9358 7.41303 19.9358C8.23254 19.9358 8.89911 20.6024 8.89911 21.4219ZM21.673 21.4219C21.673 22.2415 21.0064 22.908 20.1869 22.908C19.3674 22.908 18.7008 22.2415 18.7008 21.4219C18.7008 20.6024 19.3674 19.9358 20.1869 19.9358C21.0064 19.9358 21.673 20.6024 21.673 21.4219ZM23.071 20.6756C22.739 19.393 21.5718 18.443 20.1869 18.443C18.802 18.443 17.6348 19.393 17.3028 20.6756H14.5463V16.4609H22.8286C23.5649 16.4609 24.2141 16.841 24.591 17.4148H23.4359C23.0238 17.4148 22.6897 17.749 22.6897 18.1611C22.6897 18.5733 23.0238 18.9076 23.4359 18.9076H24.9359V20.6756H23.071Z" fill="#050B20"/>
</g>
</svg>
