<svg width="27" height="35" viewBox="0 0 27 35" fill="none" xmlns="http://www.w3.org/2000/svg">
<path d="M20.5625 15.5324H19.6119C19.5049 15.5331 19.3989 15.5126 19.3 15.4721C19.2009 15.4317 19.1109 15.3721 19.035 15.2968L16.8737 13.1356C16.3408 12.6026 15.7072 12.1809 15.0097 11.8949C14.3123 11.609 13.565 11.4645 12.8113 11.4699H5.9375C4.86006 11.4699 3.82674 11.8979 3.06488 12.6598C2.30301 13.4217 1.875 14.455 1.875 15.5324V19.5949C1.875 20.2414 2.13181 20.8614 2.58893 21.3185C3.04605 21.7756 3.66603 22.0324 4.3125 22.0324C4.3125 22.7866 4.61211 23.51 5.14542 24.0433C5.67872 24.5766 6.40204 24.8762 7.15625 24.8762C7.91044 24.8762 8.63378 24.5766 9.16708 24.0433C9.70039 23.51 10 22.7866 10 22.0324H15.7688C15.8586 22.7122 16.1924 23.3362 16.7081 23.7882C17.2238 24.2403 17.8861 24.4895 18.5719 24.4895C19.2576 24.4895 19.92 24.2403 20.4356 23.7882C20.9514 23.3362 21.2851 22.7122 21.375 22.0324H22.1875C22.834 22.0324 23.4539 21.7756 23.9111 21.3185C24.3682 20.8614 24.625 20.2414 24.625 19.5949C24.625 18.5175 24.197 17.4842 23.4351 16.7223C22.6732 15.9605 21.64 15.5324 20.5625 15.5324ZM12.8519 13.0949C13.3857 13.094 13.9145 13.1983 14.4081 13.4018C14.9016 13.6053 15.3502 13.9042 15.7281 14.2812L16.9794 15.5324H6.945C6.79358 15.5335 6.64488 15.4922 6.51567 15.4133C6.38646 15.3343 6.28189 15.2208 6.21375 15.0856L5.27125 13.2006C5.48674 13.132 5.71136 13.0963 5.9375 13.0949H12.8519ZM3.5 19.5949V15.5324C3.50044 15.039 3.6506 14.5574 3.93063 14.1512L4.74313 15.7762C4.94243 16.1907 5.25496 16.5404 5.64459 16.7848C6.03422 17.0292 6.48505 17.1584 6.945 17.1574H11.625V20.4074H9.71561C9.48742 19.9214 9.12548 19.5104 8.67224 19.2226C8.219 18.9346 7.69319 18.7818 7.15625 18.7818C6.61931 18.7818 6.09347 18.9346 5.64023 19.2226C5.18699 19.5104 4.8251 19.9214 4.59687 20.4074H4.3125C4.09701 20.4074 3.89035 20.3218 3.73798 20.1695C3.5856 20.0171 3.5 19.8104 3.5 19.5949ZM7.15625 22.8449C6.91521 22.8449 6.67957 22.7735 6.47915 22.6396C6.27873 22.5056 6.12251 22.3153 6.03027 22.0926C5.93803 21.8699 5.91389 21.6248 5.96092 21.3884C6.00795 21.152 6.12402 20.9348 6.29447 20.7644C6.46491 20.594 6.68207 20.4779 6.91848 20.4309C7.1549 20.3838 7.39995 20.4079 7.62264 20.5002C7.84534 20.5925 8.0357 20.7487 8.1696 20.9491C8.3035 21.1495 8.375 21.3851 8.375 21.6262C8.375 21.9494 8.24661 22.2594 8.01804 22.4879C7.78948 22.7165 7.47948 22.8449 7.15625 22.8449ZM18.5312 22.8449C18.2902 22.8449 18.0546 22.7735 17.8541 22.6396C17.6537 22.5056 17.4975 22.3153 17.4053 22.0926C17.313 21.8699 17.2889 21.6248 17.3359 21.3884C17.3829 21.152 17.499 20.9348 17.6695 20.7644C17.8399 20.594 18.0571 20.4779 18.2935 20.4309C18.5299 20.3838 18.7749 20.4079 18.9977 20.5002C19.2204 20.5925 19.4107 20.7487 19.5446 20.9491C19.6785 21.1495 19.75 21.3851 19.75 21.6262C19.75 21.9494 19.6216 22.2594 19.393 22.4879C19.1645 22.7165 18.8545 22.8449 18.5312 22.8449ZM22.1875 20.4074H21.0906C20.8624 19.9214 20.5005 19.5104 20.0472 19.2226C19.594 18.9346 19.0682 18.7818 18.5312 18.7818C17.9943 18.7818 17.4685 18.9346 17.0153 19.2226C16.562 19.5104 16.2001 19.9214 15.9719 20.4074H13.25V17.1574H20.5625C20.9033 17.1592 21.2398 17.2325 21.5505 17.3724C21.8612 17.5124 22.1391 17.7159 22.3662 17.9699H22.1875C21.972 17.9699 21.7654 18.0555 21.613 18.2079C21.4606 18.3603 21.375 18.567 21.375 18.7824C21.375 18.9979 21.4606 19.2046 21.613 19.357C21.7654 19.5093 21.972 19.5949 22.1875 19.5949H23C23 19.8104 22.9144 20.0171 22.762 20.1695C22.6096 20.3218 22.403 20.4074 22.1875 20.4074Z" fill="#050B20"/>
</svg>
