<svg width="27" height="35" viewBox="0 0 27 35" fill="none" xmlns="http://www.w3.org/2000/svg">
<path d="M24.0136 17.0113L20.7742 15.7161L18.8916 11.3229C18.5065 10.4251 17.6274 9.84497 16.6508 9.84497H9.19847C8.11622 9.84497 7.15179 10.5722 6.85441 11.613L5.73478 15.5325H3.90991C3.01372 15.5325 2.28491 16.2613 2.28491 17.1575V22.0325C2.28491 22.9286 3.01372 23.6575 3.90991 23.6575H5.65029C6.01347 25.055 7.27529 26.095 8.78491 26.095C10.2945 26.095 11.5564 25.055 11.9195 23.6575H15.4003C15.7635 25.055 17.0253 26.095 18.5349 26.095C20.0445 26.095 21.3064 25.055 21.6695 23.6575H23.4099C24.3061 23.6575 25.0349 22.9286 25.0349 22.0325V18.52C25.0349 17.8514 24.6344 17.259 24.0136 17.0113ZM8.78491 24.47C7.88872 24.47 7.15991 23.7411 7.15991 22.845C7.15991 21.9488 7.88872 21.22 8.78491 21.22C9.68107 21.22 10.4099 21.9488 10.4099 22.845C10.4099 23.7411 9.68107 24.47 8.78491 24.47ZM18.5349 24.47C17.6388 24.47 16.9099 23.7411 16.9099 22.845C16.9099 21.9488 17.6388 21.22 18.5349 21.22C19.4311 21.22 20.1599 21.9488 20.1599 22.845C20.1599 23.7411 19.4311 24.47 18.5349 24.47ZM23.4099 22.0325H21.6695C21.3064 20.635 20.0445 19.595 18.5349 19.595C17.0253 19.595 15.7635 20.635 15.4003 22.0325H11.9195C11.5564 20.635 10.2945 19.595 8.78491 19.595C7.27529 19.595 6.01347 20.635 5.65029 22.0325H3.90991V17.1575H6.34741C6.70979 17.1575 7.0291 16.917 7.12822 16.5684L8.41602 12.0598C8.51596 11.7121 8.83691 11.47 9.19847 11.47H16.6508C16.9758 11.47 17.269 11.6633 17.3974 11.9623L19.4124 16.6651C19.4969 16.8634 19.657 17.0194 19.8569 17.0998L23.4099 18.52V22.0325Z" fill="#050B20"/>
<path d="M12.3967 19.4585C12.0238 19.2099 11.923 18.7053 12.1717 18.3315L12.9541 17.1575H12.0352C11.7354 17.1575 11.4599 16.9925 11.3185 16.7285C11.1772 16.4644 11.1926 16.1435 11.3592 15.8949L12.9842 13.4574C13.2328 13.0836 13.7374 12.9829 14.1111 13.2323C14.484 13.4809 14.5848 13.9855 14.3362 14.3592L13.5537 15.5325H14.4727C14.7725 15.5325 15.0479 15.6974 15.1893 15.9615C15.3307 16.2255 15.3152 16.5465 15.1487 16.7951L13.5237 19.2326C13.2742 19.6072 12.7689 19.7071 12.3967 19.4585Z" fill="#050B20"/>
</svg>
