<svg width="27" height="35" viewBox="0 0 27 35" fill="none" xmlns="http://www.w3.org/2000/svg">
<mask id="mask0_1_900" style="mask-type:luminance" maskUnits="userSpaceOnUse" x="0" y="5" width="26" height="26">
<path d="M25.6485 5.34137H0.391357V30.5985H25.6485V5.34137Z" fill="white"/>
</mask>
<g mask="url(#mask0_1_900)">
<path d="M23.2409 16.9205L18.8809 16.1934C18.626 15.7794 18.1192 15.0304 17.3824 14.2799C15.9116 12.7821 14.2184 11.9904 12.4855 11.9904H5.38521C4.23188 11.9904 3.16254 12.614 2.5945 13.6178L0.63791 17.0757C0.634753 17.0812 0.632386 17.087 0.629376 17.0927C0.478031 17.3635 0.391357 17.6752 0.391357 18.007V21.6506C0.391357 22.0593 0.72266 22.3905 1.13131 22.3905H3.50119C3.84902 23.3007 4.73559 23.9495 5.77216 23.9495C6.80874 23.9495 7.69528 23.3007 8.04316 22.3905H17.2334C17.5812 23.3007 18.4677 23.9495 19.5043 23.9495C20.5409 23.9495 21.4274 23.3007 21.7752 22.3905H24.9085C25.3172 22.3905 25.6485 22.0593 25.6485 21.6506V19.6917C25.6485 18.3036 24.6142 17.1143 23.2409 16.9205ZM17.0296 16.1263H11.6991V13.4704H12.4855C14.5829 13.4704 16.1669 15.0209 17.0296 16.1263ZM6.7604 13.4704H10.2193V16.1263H6.7604V13.4704ZM3.88252 14.3466C4.1711 13.8367 4.70002 13.5093 5.28049 13.4739V16.1263H2.87549L3.88252 14.3466ZM5.77216 22.4695C5.24912 22.4695 4.82359 22.0512 4.82359 21.5368C4.82359 21.0225 5.24912 20.6041 5.77216 20.6041C6.29521 20.6041 6.72074 21.0225 6.72074 21.5368C6.72074 22.0512 6.29521 22.4695 5.77216 22.4695ZM19.5043 22.4695C18.9812 22.4695 18.5557 22.0512 18.5557 21.5368C18.5557 21.0225 18.9813 20.6041 19.5043 20.6041C20.0274 20.6041 20.4529 21.0225 20.4529 21.5368C20.4529 22.0512 20.0274 22.4695 19.5043 22.4695ZM21.8493 20.9106C21.571 19.883 20.6254 19.1242 19.5043 19.1242C18.3832 19.1242 17.4376 19.883 17.1592 20.9106H8.11715C7.83887 19.883 6.89324 19.1242 5.77216 19.1242C4.65109 19.1242 3.70547 19.883 3.42709 20.9106H1.87127V18.007C1.87127 17.786 2.05103 17.6062 2.27203 17.6062H18.3559L23.0073 18.3819C23.0144 18.3831 23.0215 18.3842 23.0287 18.3852C23.1546 18.4024 23.2743 18.4375 23.3858 18.4875C23.0763 18.576 22.8494 18.8604 22.8494 19.1984C22.8494 19.6071 23.1807 19.9384 23.5894 19.9384H24.1686V20.9107L21.8493 20.9106Z" fill="#050B20"/>
</g>
</svg>
