<svg width="14" height="15" viewBox="0 0 14 15" fill="none" xmlns="http://www.w3.org/2000/svg">
<path d="M13.6109 0.890137H5.05533C4.84037 0.890137 4.66643 1.06408 4.66643 1.27904C4.66643 1.494 4.84037 1.66794 5.05533 1.66794H12.6721L0.113697 14.2263C-0.0382245 14.3782 -0.0382245 14.6243 0.113697 14.7762C0.18964 14.8521 0.289171 14.8901 0.388666 14.8901C0.488161 14.8901 0.587656 14.8521 0.663635 14.7762L13.222 2.21784V9.83461C13.222 10.0496 13.3959 10.2235 13.6109 10.2235C13.8259 10.2235 13.9998 10.0496 13.9998 9.83461V1.27904C13.9998 1.06408 13.8258 0.890137 13.6109 0.890137Z" fill="#050B20"/>
</svg>
