<svg width="15" height="15" viewBox="0 0 15 15" fill="none" xmlns="http://www.w3.org/2000/svg">
<path d="M14.4908 0.969971H5.93521C5.72025 0.969971 5.54631 1.14391 5.54631 1.35887C5.54631 1.57383 5.72025 1.74777 5.93521 1.74777H13.552L0.99358 14.3062C0.841658 14.4581 0.841658 14.7042 0.99358 14.8561C1.06952 14.932 1.16905 14.97 1.26855 14.97C1.36804 14.97 1.46754 14.932 1.54352 14.8561L14.1019 2.29767V9.91444C14.1019 10.1294 14.2758 10.3033 14.4908 10.3033C14.7058 10.3033 14.8797 10.1294 14.8797 9.91444V1.35887C14.8797 1.14391 14.7057 0.969971 14.4908 0.969971Z" fill="#050B20"/>
</svg>
