<svg width="108" height="27" viewBox="0 0 108 27" fill="none" xmlns="http://www.w3.org/2000/svg">
<g clip-path="url(#clip0_1_1467)">
<g clip-path="url(#clip1_1_1467)">
<g clip-path="url(#clip2_1_1467)">
<path d="M7.2099 0.72C11.1999 0.72 12.9149 2.575 12.9149 6.355V7.23C12.9149 9.75 12.1449 11.36 10.4299 12.165C12.4949 12.97 13.2999 14.825 13.2999 17.415V19.41C13.2999 23.19 11.3049 25.22 7.4549 25.22H1.3999V0.72H7.2099ZM6.9649 14.195H5.2499V21.72H7.4549C8.7499 21.72 9.4499 21.125 9.4499 19.305V17.17C9.4499 14.895 8.7149 14.195 6.9649 14.195ZM7.1049 4.22H5.2499V10.695H6.7549C8.1899 10.695 9.0649 10.065 9.0649 8.105V6.74C9.0649 4.99 8.4699 4.22 7.1049 4.22ZM20.9037 6.355V19.585C20.9037 21.335 21.6737 22 22.8987 22C24.1237 22 24.8937 21.335 24.8937 19.585V6.355C24.8937 4.605 24.1237 3.94 22.8987 3.94C21.6737 3.94 20.9037 4.605 20.9037 6.355ZM17.0537 19.34V6.6C17.0537 2.68 19.1187 0.440002 22.8987 0.440002C26.6787 0.440002 28.7437 2.68 28.7437 6.6V19.34C28.7437 23.26 26.6787 25.5 22.8987 25.5C19.1187 25.5 17.0537 23.26 17.0537 19.34ZM41.7579 0.72H45.3279L41.3029 12.62L45.6079 25.22H41.5479L38.3979 15.525L35.2129 25.22H31.6079L35.9129 12.62L31.8879 0.72H35.8779L38.7829 9.75L41.7579 0.72ZM56.2843 16.085H59.9243V19.34C59.9243 23.26 57.9643 25.5 54.1843 25.5C50.4043 25.5 48.4443 23.26 48.4443 19.34V6.6C48.4443 2.68 50.4043 0.440002 54.1843 0.440002C57.9643 0.440002 59.9243 2.68 59.9243 6.6V8.98H56.2843V6.355C56.2843 4.605 55.5143 3.94 54.2893 3.94C53.0643 3.94 52.2943 4.605 52.2943 6.355V19.585C52.2943 21.335 53.0643 21.965 54.2893 21.965C55.5143 21.965 56.2843 21.335 56.2843 19.585V16.085ZM72.5503 0.72L76.4703 25.22H72.5853L71.9203 20.775H67.1953L66.5303 25.22H62.9953L66.9153 0.72H72.5503ZM69.5403 5.06L67.6853 17.45H71.3953L69.5403 5.06ZM91.9832 25.22H88.0632C87.8532 24.59 87.7132 24.205 87.7132 22.21V18.36C87.7132 16.085 86.9432 15.245 85.1932 15.245H83.8632V25.22H80.0132V0.72H85.8232C89.8132 0.72 91.5282 2.575 91.5282 6.355V8.28C91.5282 10.8 90.7232 12.445 89.0082 13.25C90.9332 14.055 91.5632 15.91 91.5632 18.465V22.245C91.5632 23.435 91.5982 24.31 91.9832 25.22ZM85.7182 4.22H83.8632V11.745H85.3682C86.8032 11.745 87.6782 11.115 87.6782 9.155V6.74C87.6782 4.99 87.0832 4.22 85.7182 4.22ZM95.3552 6.6C95.3552 2.68 97.2802 0.440002 101.025 0.440002C104.77 0.440002 106.695 2.68 106.695 6.6V7.37H103.055V6.355C103.055 4.605 102.355 3.94 101.13 3.94C99.9052 3.94 99.2052 4.605 99.2052 6.355C99.2052 11.395 106.73 12.34 106.73 19.34C106.73 23.26 104.77 25.5 100.99 25.5C97.2102 25.5 95.2502 23.26 95.2502 19.34V17.835H98.8902V19.585C98.8902 21.335 99.6602 21.965 100.885 21.965C102.11 21.965 102.88 21.335 102.88 19.585C102.88 14.545 95.3552 13.6 95.3552 6.6Z" fill="#050B20"/>
</g>
</g>
</g>
<defs>
<clipPath id="clip0_1_1467">
<rect width="108" height="26" fill="white" transform="translate(0 0.220001)"/>
</clipPath>
<clipPath id="clip1_1_1467">
<rect width="108" height="26" fill="white" transform="translate(0 0.220001)"/>
</clipPath>
<clipPath id="clip2_1_1467">
<rect width="108" height="26" fill="white" transform="translate(0 0.220001)"/>
</clipPath>
</defs>
</svg>
