<svg width="15" height="15" viewBox="0 0 15 15" fill="none" xmlns="http://www.w3.org/2000/svg">
<path d="M14.2808 0.969971H5.72525C5.51029 0.969971 5.33635 1.14391 5.33635 1.35887C5.33635 1.57383 5.51029 1.74777 5.72525 1.74777H13.342L0.783619 14.3062C0.631697 14.4581 0.631697 14.7042 0.783619 14.8561C0.859562 14.932 0.959093 14.97 1.05859 14.97C1.15808 14.97 1.25758 14.932 1.33356 14.8561L13.8919 2.29767V9.91444C13.8919 10.1294 14.0658 10.3033 14.2808 10.3033C14.4958 10.3033 14.6697 10.1294 14.6697 9.91444V1.35887C14.6697 1.14391 14.4957 0.969971 14.2808 0.969971Z" fill="white"/>
</svg>
