<svg width="15" height="15" viewBox="0 0 15 15" fill="none" xmlns="http://www.w3.org/2000/svg">
<path d="M14.1607 0.890137H5.60513C5.39017 0.890137 5.21623 1.06408 5.21623 1.27904C5.21623 1.494 5.39017 1.66794 5.60513 1.66794H13.2219L0.663502 14.2263C0.51158 14.3782 0.51158 14.6243 0.663502 14.7762C0.739445 14.8521 0.838976 14.8901 0.938471 14.8901C1.03797 14.8901 1.13746 14.8521 1.21344 14.7762L13.7718 2.21784V9.83461C13.7718 10.0496 13.9457 10.2235 14.1607 10.2235C14.3757 10.2235 14.5496 10.0496 14.5496 9.83461V1.27904C14.5496 1.06408 14.3756 0.890137 14.1607 0.890137Z" fill="white"/>
</svg>
