<svg width="94" height="95" viewBox="0 0 94 95" fill="none" xmlns="http://www.w3.org/2000/svg">
<g clip-path="url(#clip0_1_1178)">
<path d="M14.9196 39.2386C14.9196 21.6956 27.812 7.16364 44.639 4.60062C42.9043 4.33626 41.1275 4.19922 39.3189 4.19922C19.9671 4.19922 4.2793 19.8871 4.2793 39.2388C4.2793 58.5906 19.9671 74.2784 39.3189 74.2784C41.1275 74.2784 42.9043 74.1412 44.639 73.8768C27.8121 71.3136 14.9196 56.7819 14.9196 39.2386Z" fill="white" fill-opacity="0.2"/>
<path d="M38.7448 77.9473C17.4007 77.9473 0.0361328 60.5827 0.0361328 39.2386C0.0361328 17.8946 17.4007 0.530029 38.7448 0.530029C60.0888 0.530029 77.4534 17.8946 77.4534 39.2386C77.4534 60.5827 60.0888 77.9473 38.7448 77.9473ZM38.7448 7.86816C21.447 7.86816 7.37426 21.9408 7.37426 39.2386C7.37426 56.5365 21.447 70.6092 38.7448 70.6092C56.0426 70.6092 70.1153 56.5365 70.1153 39.2386C70.1153 21.9408 56.0426 7.86816 38.7448 7.86816Z" fill="#405FF2"/>
<path d="M90.2951 94.5299C89.3562 94.5299 88.4171 94.1718 87.7005 93.4554L71.2815 77.0363C69.8487 75.6034 69.8487 73.2801 71.2815 71.8474C72.7144 70.4144 75.0377 70.4144 76.4704 71.8474L92.8895 88.2664C94.3223 89.6994 94.3223 92.0226 92.8895 93.4554C92.1731 94.1716 91.234 94.5299 90.2951 94.5299ZM43.1749 49.6277L57.6745 35.0371C59.1029 33.5997 59.0956 31.2767 57.6582 29.8483C56.2212 28.4201 53.8982 28.4269 52.4694 29.8646L37.9669 44.4583C37.1988 45.2329 36.1799 45.6596 35.0979 45.6596C34.0158 45.6596 32.9969 45.2329 32.229 44.4583L25.2062 37.3748C23.7795 35.9358 21.4565 35.9256 20.0174 37.3525C18.5784 38.7792 18.5685 41.1022 19.9951 42.5413L27.018 49.6247C29.1747 51.7998 32.0441 52.9975 35.098 52.9975C38.152 52.9975 41.0214 51.7998 43.1749 49.6277Z" fill="white"/>
</g>
<defs>
<clipPath id="clip0_1_1178">
<rect width="94" height="94" fill="white" transform="translate(0 0.530029)"/>
</clipPath>
</defs>
</svg>
