<svg width="14" height="15" viewBox="0 0 14 15" fill="none" xmlns="http://www.w3.org/2000/svg">
<path d="M13.6109 0.599854H5.05533C4.84037 0.599854 4.66643 0.773797 4.66643 0.988755C4.66643 1.20371 4.84037 1.37766 5.05533 1.37766H12.6721L0.113697 13.9361C-0.0382245 14.088 -0.0382245 14.3341 0.113697 14.486C0.18964 14.5619 0.289171 14.5999 0.388666 14.5999C0.488161 14.5999 0.587656 14.5619 0.663635 14.486L13.222 1.92755V9.54432C13.222 9.75928 13.3959 9.93322 13.6109 9.93322C13.8259 9.93322 13.9998 9.75928 13.9998 9.54432V0.988755C13.9998 0.773797 13.8258 0.599854 13.6109 0.599854Z" fill="#405FF2"/>
</svg>
