<svg width="19" height="19" viewBox="0 0 19 19" fill="none" xmlns="http://www.w3.org/2000/svg">
<g clip-path="url(#clip0_1_1066)">
<path d="M10.9901 3.59975C10.9901 3.43975 10.9401 3.30975 10.8401 3.20975C10.7401 3.10975 10.6101 3.05975 10.4501 3.05975H4.8101C4.6501 3.05975 4.5201 3.10975 4.4201 3.20975C4.3201 3.30975 4.2701 3.43975 4.2701 3.59975V8.09975C4.2701 8.25975 4.3201 8.39975 4.4201 8.51975C4.5201 8.63975 4.6501 8.69975 4.8101 8.69975H10.4501C10.6101 8.69975 10.7401 8.63975 10.8401 8.51975C10.9401 8.39975 10.9901 8.25975 10.9901 8.09975V3.59975ZM9.8501 7.55975H5.3501V4.19975H9.8501V7.55975ZM17.4701 4.19975L15.1901 3.11975C15.0701 3.03975 14.9301 3.01975 14.7701 3.05975C14.6101 3.09975 14.5001 3.18975 14.4401 3.32975C14.3801 3.46975 14.3701 3.61975 14.4101 3.77975C14.4501 3.93975 14.5501 4.03975 14.7101 4.07975L15.5501 4.55975L15.4901 4.73975C15.4901 5.09975 15.6001 5.41975 15.8201 5.69975C16.0401 5.97975 16.3101 6.17975 16.6301 6.29975V13.1397C16.6301 13.2997 16.5701 13.4397 16.4501 13.5597C16.3301 13.6797 16.2001 13.7397 16.0601 13.7397C15.9201 13.7397 15.7901 13.6797 15.6701 13.5597C15.5501 13.4397 15.4901 13.2997 15.4901 13.1397V8.63975C15.4901 7.99975 15.2601 7.41975 14.8001 6.89975C14.3401 6.37975 13.8301 6.05975 13.2701 5.93975V2.45975C13.2701 1.85975 13.0501 1.33975 12.6101 0.899746C12.1701 0.459747 11.6501 0.239746 11.0501 0.239746H4.2701C3.6701 0.239746 3.1401 0.459747 2.6801 0.899746C2.2201 1.33975 1.9901 1.85975 1.9901 2.45975V15.0597L1.2101 15.4797C0.970098 15.5997 0.850098 15.7597 0.850098 15.9597V17.6397C0.850098 17.7997 0.910098 17.9397 1.0301 18.0597C1.1501 18.1797 1.2901 18.2397 1.4501 18.2397H13.8101C13.9701 18.2397 14.1001 18.1797 14.2001 18.0597C14.3001 17.9397 14.3501 17.7997 14.3501 17.6397V15.9597C14.3501 15.7597 14.2501 15.5997 14.0501 15.4797L13.2701 15.0597V7.07975C13.5501 7.19975 13.8001 7.40975 14.0201 7.70975C14.2401 8.00975 14.3501 8.31975 14.3501 8.63975V13.1397C14.3501 13.6197 14.5201 14.0297 14.8601 14.3697C15.2001 14.7097 15.6001 14.8797 16.0601 14.8797C16.5201 14.8797 16.9201 14.7097 17.2601 14.3697C17.6001 14.0297 17.7701 13.6197 17.7701 13.1397V4.73975C17.7701 4.49975 17.6701 4.31975 17.4701 4.19975ZM13.2701 17.0997H1.9901V16.3197L2.8301 15.8997C3.0301 15.8197 3.1301 15.6597 3.1301 15.4197V2.45975C3.1301 2.17975 3.2401 1.92975 3.4601 1.70975C3.6801 1.48975 3.9501 1.37975 4.2701 1.37975H11.0501C11.3301 1.37975 11.5801 1.48975 11.8001 1.70975C12.0201 1.92975 12.1301 2.17975 12.1301 2.45975V15.4197C12.1301 15.6597 12.2301 15.8197 12.4301 15.8997L13.2701 16.3197V17.0997Z" fill="#050B20"/>
</g>
<defs>
<clipPath id="clip0_1_1066">
<rect width="18" height="18" fill="white" transform="matrix(1 0 0 -1 0.310059 18.2397)"/>
</clipPath>
</defs>
</svg>
