<svg width="19" height="19" viewBox="0 0 19 19" fill="none" xmlns="http://www.w3.org/2000/svg">
<path d="M3.36007 1.91982C2.80007 1.91982 2.32007 2.11981 1.92007 2.51981C1.52007 2.91982 1.32007 3.40981 1.32007 3.98981C1.32007 4.56981 1.52007 5.05981 1.92007 5.45982C2.32007 5.85981 2.80007 6.05981 3.36007 6.05981C3.92007 6.05981 4.40007 5.85981 4.80007 5.45982C5.20007 5.05981 5.40007 4.56981 5.40007 3.98981C5.40007 3.40981 5.20007 2.91982 4.80007 2.51981C4.40007 2.11981 3.92007 1.91982 3.36007 1.91982ZM3.36007 3.05981C3.60007 3.05981 3.82007 3.14981 4.02007 3.32981C4.22007 3.50982 4.32007 3.72981 4.32007 3.98981C4.32007 4.24981 4.22007 4.46981 4.02007 4.64981C3.82007 4.82981 3.60007 4.91982 3.36007 4.91982C3.12007 4.91982 2.90007 4.82981 2.70007 4.64981C2.50007 4.46981 2.40007 4.24981 2.40007 3.98981C2.40007 3.72981 2.50007 3.50982 2.70007 3.32981C2.90007 3.14981 3.12007 3.05981 3.36007 3.05981ZM3.36007 12.4198C2.80007 12.4198 2.32007 12.6198 1.92007 13.0198C1.52007 13.4198 1.32007 13.9098 1.32007 14.4898C1.32007 15.0698 1.52007 15.5598 1.92007 15.9598C2.32007 16.3598 2.80007 16.5598 3.36007 16.5598C3.92007 16.5598 4.40007 16.3598 4.80007 15.9598C5.20007 15.5598 5.40007 15.0698 5.40007 14.4898C5.40007 13.9098 5.20007 13.4198 4.80007 13.0198C4.40007 12.6198 3.92007 12.4198 3.36007 12.4198ZM3.36007 13.5598C3.60007 13.5598 3.82007 13.6498 4.02007 13.8298C4.22007 14.0098 4.32007 14.2298 4.32007 14.4898C4.32007 14.7498 4.22007 14.9698 4.02007 15.1498C3.82007 15.3298 3.60007 15.4198 3.36007 15.4198C3.12007 15.4198 2.90007 15.3298 2.70007 15.1498C2.50007 14.9698 2.40007 14.7498 2.40007 14.4898C2.40007 14.2298 2.50007 14.0098 2.70007 13.8298C2.90007 13.6498 3.12007 13.5598 3.36007 13.5598ZM9.36007 1.91982C8.80007 1.91982 8.32007 2.11981 7.92007 2.51981C7.52007 2.91982 7.32007 3.40981 7.32007 3.98981C7.32007 4.56981 7.52007 5.05981 7.92007 5.45982C8.32007 5.85981 8.80007 6.05981 9.36007 6.05981C9.92007 6.05981 10.4001 5.85981 10.8001 5.45982C11.2001 5.05981 11.4001 4.56981 11.4001 3.98981C11.4001 3.40981 11.2001 2.91982 10.8001 2.51981C10.4001 2.11981 9.92007 1.91982 9.36007 1.91982ZM9.36007 3.05981C9.60007 3.05981 9.82007 3.14981 10.0201 3.32981C10.2201 3.50982 10.3201 3.72981 10.3201 3.98981C10.3201 4.24981 10.2201 4.46981 10.0201 4.64981C9.82007 4.82981 9.60007 4.91982 9.36007 4.91982C9.12007 4.91982 8.90007 4.82981 8.70007 4.64981C8.50007 4.46981 8.40007 4.24981 8.40007 3.98981C8.40007 3.72981 8.50007 3.50982 8.70007 3.32981C8.90007 3.14981 9.12007 3.05981 9.36007 3.05981ZM9.36007 12.4198C8.80007 12.4198 8.32007 12.6198 7.92007 13.0198C7.52007 13.4198 7.32007 13.9098 7.32007 14.4898C7.32007 15.0698 7.52007 15.5598 7.92007 15.9598C8.32007 16.3598 8.80007 16.5598 9.36007 16.5598C9.92007 16.5598 10.4001 16.3598 10.8001 15.9598C11.2001 15.5598 11.4001 15.0698 11.4001 14.4898C11.4001 13.9098 11.2001 13.4198 10.8001 13.0198C10.4001 12.6198 9.92007 12.4198 9.36007 12.4198ZM9.36007 13.5598C9.60007 13.5598 9.82007 13.6498 10.0201 13.8298C10.2201 14.0098 10.3201 14.2298 10.3201 14.4898C10.3201 14.7498 10.2201 14.9698 10.0201 15.1498C9.82007 15.3298 9.60007 15.4198 9.36007 15.4198C9.12007 15.4198 8.90007 15.3298 8.70007 15.1498C8.50007 14.9698 8.40007 14.7498 8.40007 14.4898C8.40007 14.2298 8.50007 14.0098 8.70007 13.8298C8.90007 13.6498 9.12007 13.5598 9.36007 13.5598ZM15.3601 1.91982C14.8001 1.91982 14.3201 2.11981 13.9201 2.51981C13.5201 2.91982 13.3201 3.40981 13.3201 3.98981C13.3201 4.56981 13.5201 5.05981 13.9201 5.45982C14.3201 5.85981 14.8001 6.05981 15.3601 6.05981C15.9201 6.05981 16.4001 5.85981 16.8001 5.45982C17.2001 5.05981 17.4001 4.56981 17.4001 3.98981C17.4001 3.40981 17.2001 2.91982 16.8001 2.51981C16.4001 2.11981 15.9201 1.91982 15.3601 1.91982ZM15.3601 3.05981C15.6001 3.05981 15.8201 3.14981 16.0201 3.32981C16.2201 3.50982 16.3201 3.72981 16.3201 3.98981C16.3201 4.24981 16.2201 4.46981 16.0201 4.64981C15.8201 4.82981 15.6001 4.91982 15.3601 4.91982C15.1201 4.91982 14.9001 4.82981 14.7001 4.64981C14.5001 4.46981 14.4001 4.24981 14.4001 3.98981C14.4001 3.72981 14.5001 3.50982 14.7001 3.32981C14.9001 3.14981 15.1201 3.05981 15.3601 3.05981ZM15.3601 12.4198C14.8001 12.4198 14.3201 12.6198 13.9201 13.0198C13.5201 13.4198 13.3201 13.9098 13.3201 14.4898C13.3201 15.0698 13.5201 15.5598 13.9201 15.9598C14.3201 16.3598 14.8001 16.5598 15.3601 16.5598C15.9201 16.5598 16.4001 16.3598 16.8001 15.9598C17.2001 15.5598 17.4001 15.0698 17.4001 14.4898C17.4001 13.9098 17.2001 13.4198 16.8001 13.0198C16.4001 12.6198 15.9201 12.4198 15.3601 12.4198ZM15.3601 13.5598C15.6001 13.5598 15.8201 13.6498 16.0201 13.8298C16.2201 14.0098 16.3201 14.2298 16.3201 14.4898C16.3201 14.7498 16.2201 14.9698 16.0201 15.1498C15.8201 15.3298 15.6001 15.4198 15.3601 15.4198C15.1201 15.4198 14.9001 15.3298 14.7001 15.1498C14.5001 14.9698 14.4001 14.7498 14.4001 14.4898C14.4001 14.2298 14.5001 14.0098 14.7001 13.8298C14.9001 13.6498 15.1201 13.5598 15.3601 13.5598ZM2.82007 5.45982V12.9598C2.82007 13.1198 2.87007 13.2598 2.97007 13.3798C3.07007 13.4998 3.20007 13.5598 3.36007 13.5598C3.52007 13.5598 3.65007 13.4998 3.75007 13.3798C3.85007 13.2598 3.90007 13.1398 3.90007 13.0198V5.45982C3.90007 5.33982 3.85007 5.21981 3.75007 5.09981C3.65007 4.97981 3.52007 4.91982 3.36007 4.91982C3.20007 4.91982 3.07007 4.97981 2.97007 5.09981C2.87007 5.21981 2.82007 5.33982 2.82007 5.45982ZM8.82007 5.45982V12.9598C8.82007 13.1198 8.87007 13.2598 8.97007 13.3798C9.07007 13.4998 9.20007 13.5598 9.36007 13.5598C9.52007 13.5598 9.65007 13.4998 9.75007 13.3798C9.85007 13.2598 9.90007 13.1398 9.90007 13.0198V5.45982C9.90007 5.33982 9.85007 5.21981 9.75007 5.09981C9.65007 4.97981 9.52007 4.91982 9.36007 4.91982C9.20007 4.91982 9.07007 4.97981 8.97007 5.09981C8.87007 5.21981 8.82007 5.33982 8.82007 5.45982ZM14.8201 5.45982V8.45982C14.8201 8.53981 14.8001 8.59981 14.7601 8.63981C14.7201 8.67981 14.6801 8.69981 14.6401 8.69981H3.36007C3.20007 8.69981 3.07007 8.74981 2.97007 8.84981C2.87007 8.94981 2.82007 9.07981 2.82007 9.23981C2.82007 9.39981 2.87007 9.52981 2.97007 9.62981C3.07007 9.72981 3.20007 9.77981 3.36007 9.77981H14.6401C15.0001 9.77981 15.3001 9.65981 15.5401 9.41981C15.7801 9.17981 15.9001 8.85981 15.9001 8.45982V5.51981C15.9001 5.35981 15.8501 5.21981 15.7501 5.09981C15.6501 4.97981 15.5201 4.91982 15.3601 4.91982C15.2001 4.91982 15.0701 4.97981 14.9701 5.09981C14.8701 5.21981 14.8201 5.33982 14.8201 5.45982Z" fill="#050B20"/>
</svg>
