<svg width="19" height="19" viewBox="0 0 19 19" fill="none" xmlns="http://www.w3.org/2000/svg">
<g clip-path="url(#clip0_1_1063)">
<path d="M18.95 10.8597C18.95 12.8997 18.35 14.7197 17.15 16.3197C17.03 16.4797 16.87 16.5697 16.67 16.5897C16.47 16.6097 16.29 16.5597 16.13 16.4397C15.97 16.3197 15.88 16.1697 15.86 15.9897C15.84 15.8097 15.89 15.6397 16.01 15.4797C17.05 14.1197 17.57 12.5797 17.57 10.8597C17.57 9.49971 17.2299 8.23971 16.55 7.07971C15.87 5.91971 14.94 4.99971 13.76 4.31971C12.58 3.63971 11.31 3.29971 9.94995 3.29971C8.58995 3.29971 7.31995 3.63971 6.13995 4.31971C4.95995 4.99971 4.02995 5.91971 3.34995 7.07971C2.66995 8.23971 2.32995 9.49971 2.32995 10.8597C2.32995 12.5797 2.84995 14.1197 3.88995 15.4797C4.00995 15.6397 4.05995 15.8097 4.03995 15.9897C4.01995 16.1697 3.92995 16.3197 3.76995 16.4397C3.60995 16.5597 3.42995 16.6097 3.22995 16.5897C3.02995 16.5697 2.86995 16.4797 2.74995 16.3197C1.54995 14.7197 0.949951 12.8997 0.949951 10.8597C0.949951 9.25971 1.34995 7.76971 2.14995 6.38971C2.94995 5.00971 4.03995 3.91971 5.41995 3.11971C6.79995 2.31971 8.30995 1.91971 9.94995 1.91971C11.59 1.91971 13.1 2.31971 14.48 3.11971C15.86 3.91971 16.95 5.00971 17.75 6.38971C18.55 7.76971 18.95 9.25971 18.95 10.8597ZM14.39 6.65971C14.55 6.77971 14.63 6.93971 14.63 7.13971C14.63 7.33971 14.55 7.49971 14.39 7.61971L12.11 9.95971C12.31 10.3197 12.41 10.6997 12.41 11.0997C12.41 11.7797 12.17 12.3597 11.69 12.8397C11.21 13.3197 10.63 13.5597 9.94995 13.5597C9.26995 13.5597 8.68995 13.3197 8.20995 12.8397C7.72995 12.3597 7.48995 11.7797 7.48995 11.0997C7.48995 10.4197 7.72995 9.83971 8.20995 9.35971C8.68995 8.87971 9.26995 8.63971 9.94995 8.63971C10.35 8.63971 10.73 8.73971 11.09 8.93971L13.43 6.65971C13.55 6.49971 13.71 6.41971 13.91 6.41971C14.11 6.41971 14.27 6.49971 14.39 6.65971ZM11.03 11.0997C11.03 10.8197 10.92 10.5797 10.7 10.3797C10.48 10.1797 10.23 10.0797 9.94995 10.0797C9.66995 10.0797 9.41995 10.1797 9.19995 10.3797C8.97995 10.5797 8.86995 10.8197 8.86995 11.0997C8.86995 11.3797 8.97995 11.6297 9.19995 11.8497C9.41995 12.0697 9.66995 12.1797 9.94995 12.1797C10.23 12.1797 10.48 12.0697 10.7 11.8497C10.92 11.6297 11.03 11.3797 11.03 11.0997Z" fill="#050B20"/>
</g>
<defs>
<clipPath id="clip0_1_1063">
<rect width="18" height="18" fill="white" transform="matrix(1 0 0 -1 0.949951 18.2397)"/>
</clipPath>
</defs>
</svg>
