<svg width="61" height="61" viewBox="0 0 61 61" fill="none" xmlns="http://www.w3.org/2000/svg">
<g clip-path="url(#clip0_1_1225)">
<g clip-path="url(#clip1_1_1225)">
<g clip-path="url(#clip2_1_1225)">
<path d="M30.5 2.37354V7.06104" stroke="#FF5CF4" stroke-width="3" stroke-miterlimit="10" stroke-linecap="round" stroke-linejoin="round"/>
<path d="M49.25 2.37354L44.5625 7.06104" stroke="#FF5CF4" stroke-width="3" stroke-miterlimit="10" stroke-linecap="round" stroke-linejoin="round"/>
<path d="M15.9738 36.6904C14.8072 35.4353 14.0938 33.7533 14.0938 31.9047C14.0938 30.7761 14.3596 29.7097 14.8323 28.7644L19.5198 19.3894C20.6732 17.0826 23.0579 15.4985 25.8125 15.4985H18.7812C16.0266 15.4985 13.642 17.0826 12.4885 19.3894L7.80102 28.7644C7.3284 29.7097 7.0625 30.7761 7.0625 31.9047C7.0625 33.7533 7.77594 35.4353 8.94254 36.6904L27.0658 56.1889C27.9218 57.1099 29.1436 57.6859 30.5 57.6859C31.8564 57.6859 33.0782 57.1099 33.9342 56.189L34.0156 56.1013L15.9738 36.6904Z" fill="#EEF1FB"/>
<path d="M48.5115 19.3894L53.199 28.7644C53.6716 29.7095 53.9375 30.7761 53.9375 31.9047C53.9375 33.7533 53.2241 35.4354 52.0575 36.6905L33.9342 56.189C33.0782 57.1099 31.8564 57.6859 30.5 57.6859C29.1436 57.6859 27.9218 57.1099 27.0658 56.189L8.94254 36.6905C7.77594 35.4354 7.0625 33.7533 7.0625 31.9047C7.0625 30.7761 7.3284 29.7095 7.80102 28.7644L12.4885 19.3894C13.642 17.0825 16.0266 15.4985 18.7812 15.4985H42.2188C44.9734 15.4985 47.358 17.0825 48.5115 19.3894Z" stroke="#405FF2" stroke-width="3" stroke-miterlimit="10" stroke-linecap="round" stroke-linejoin="round"/>
<path d="M11.75 2.37354L16.4375 7.06104" stroke="#FF5CF4" stroke-width="3" stroke-miterlimit="10" stroke-linecap="round" stroke-linejoin="round"/>
<path d="M17.885 29.561H43.1152" stroke="#405FF2" stroke-width="3" stroke-miterlimit="10" stroke-linecap="round" stroke-linejoin="round"/>
<path d="M25.8125 24.8735L30.5 29.5609L35.1875 24.8735" stroke="#405FF2" stroke-width="3" stroke-miterlimit="10" stroke-linecap="round" stroke-linejoin="round"/>
<path d="M30.5 43.6235V29.7603" stroke="#405FF2" stroke-width="3" stroke-miterlimit="10" stroke-linecap="round" stroke-linejoin="round"/>
</g>
</g>
</g>
<defs>
<clipPath id="clip0_1_1225">
<rect width="60" height="60" fill="white" transform="translate(0.5 0.0297852)"/>
</clipPath>
<clipPath id="clip1_1_1225">
<rect width="60" height="60" fill="white" transform="translate(0.5 0.0297852)"/>
</clipPath>
<clipPath id="clip2_1_1225">
<rect width="60" height="60" fill="white" transform="translate(0.5 0.0297852)"/>
</clipPath>
</defs>
</svg>
