<svg width="61" height="61" viewBox="0 0 61 61" fill="none" xmlns="http://www.w3.org/2000/svg">
<g clip-path="url(#clip0_1_1253)">
<g clip-path="url(#clip1_1_1253)">
<path d="M24.0465 4.48291C20.3452 4.48291 16.9904 6.66061 15.4836 10.0412L9.38656 23.7204C5.73148 23.9716 2.84375 27.0141 2.84375 30.7329V36.1236C2.84375 39.3596 5.46711 41.9829 8.70312 41.9829H10.3092C10.3179 41.532 10.3293 41.0812 10.3438 40.6303C9.9623 39.8528 9.74727 38.9788 9.74727 38.0543L9.64062 33.897C9.64062 30.8225 10.2662 29.6392 12.5483 29.1795C13.6331 28.9609 14.5413 28.2218 14.9858 27.2084L22.5148 10.0412C24.0215 6.66061 27.3764 4.48291 31.0777 4.48291H24.0465Z" fill="#EEF1FB"/>
<path d="M8.70312 41.9829C5.46711 41.9829 2.84375 39.3596 2.84375 36.1236V30.7329C2.84375 27.0141 5.73148 23.9716 9.38656 23.7204L15.4836 10.0412C16.9903 6.66061 20.3451 4.48291 24.0465 4.48291H34.7217C38.2441 4.48291 41.4692 6.45729 43.0711 9.5944L46.0859 15.4986M58.1562 30.7329C58.1562 26.8497 55.0082 23.7017 51.125 23.7017H19.1328M28.7422 15.4986V4.6001M32.9609 41.9829H27.6873M21.242 37.2954C18.6532 37.2954 16.5545 39.3941 16.5545 41.9829C16.5545 44.5717 18.6532 46.6704 21.242 46.6704C23.8307 46.6704 25.9295 44.5717 25.9295 41.9829C25.9295 39.3941 23.8309 37.2954 21.242 37.2954Z" stroke="#405FF2" stroke-width="3" stroke-miterlimit="10" stroke-linecap="round" stroke-linejoin="round"/>
<path d="M58.1562 41.6314C58.1562 46.1295 54.5097 49.8345 50.0117 49.8345C45.5136 49.8345 41.8671 46.1881 41.8671 41.69C41.8671 37.1918 45.5722 33.5454 50.0703 33.5454M44.0351 48.1353L36.5938 55.5767" stroke="#FF5CF3" stroke-width="3" stroke-miterlimit="10" stroke-linecap="round" stroke-linejoin="round"/>
</g>
</g>
<defs>
<clipPath id="clip0_1_1253">
<rect width="60" height="60" fill="white" transform="translate(0.5 0.0297852)"/>
</clipPath>
<clipPath id="clip1_1_1253">
<rect width="60" height="60" fill="white" transform="translate(0.5 0.0297852)"/>
</clipPath>
</defs>
</svg>
