<svg width="9" height="5" viewBox="0 0 9 5" fill="none" xmlns="http://www.w3.org/2000/svg">
<mask id="path-1-inside-1_1_1475" fill="white">
<path d="M0.280029 0.190002H8.28003V4.19H0.280029V0.190002Z"/>
</mask>
<g clip-path="url(#paint0_diamond_1_1475_clip_path)" data-figma-skip-parse="true" mask="url(#path-1-inside-1_1_1475)"><g transform="matrix(0.004 0 0 0.004 4.28003 0.190002)"><rect x="0" y="0" width="2000" height="2000" fill="url(#paint0_diamond_1_1475)" opacity="1" shape-rendering="crispEdges"/><rect x="0" y="0" width="2000" height="2000" transform="scale(1 -1)" fill="url(#paint0_diamond_1_1475)" opacity="1" shape-rendering="crispEdges"/><rect x="0" y="0" width="2000" height="2000" transform="scale(-1 1)" fill="url(#paint0_diamond_1_1475)" opacity="1" shape-rendering="crispEdges"/><rect x="0" y="0" width="2000" height="2000" transform="scale(-1)" fill="url(#paint0_diamond_1_1475)" opacity="1" shape-rendering="crispEdges"/></g></g><path d="M0.280029 0.190002V-3.81H-3.71997V0.190002H0.280029ZM8.28003 0.190002H12.28V-3.81H8.28003V0.190002ZM0.280029 4.19H8.28003V-3.81H0.280029V4.19ZM4.28003 0.190002V4.19H12.28V0.190002H4.28003ZM4.28003 4.19V0.190002H-3.71997V4.19H4.28003Z" data-figma-gradient-fill="{&#34;type&#34;:&#34;GRADIENT_DIAMOND&#34;,&#34;stops&#34;:[{&#34;color&#34;:{&#34;r&#34;:0.019607843831181526,&#34;g&#34;:0.043137256056070328,&#34;b&#34;:0.12549020349979401,&#34;a&#34;:1.0},&#34;position&#34;:0.99999988079071045},{&#34;color&#34;:{&#34;r&#34;:0.0,&#34;g&#34;:0.0,&#34;b&#34;:0.0,&#34;a&#34;:0.0},&#34;position&#34;:1.0}],&#34;stopsVar&#34;:[{&#34;color&#34;:{&#34;r&#34;:0.019607843831181526,&#34;g&#34;:0.043137256056070328,&#34;b&#34;:0.12549020349979401,&#34;a&#34;:1.0},&#34;position&#34;:0.99999988079071045},{&#34;color&#34;:{&#34;r&#34;:0.0,&#34;g&#34;:0.0,&#34;b&#34;:0.0,&#34;a&#34;:0.0},&#34;position&#34;:1.0}],&#34;transform&#34;:{&#34;m00&#34;:8.0,&#34;m01&#34;:0.0,&#34;m02&#34;:0.2800292968750,&#34;m10&#34;:0.0,&#34;m11&#34;:8.0,&#34;m12&#34;:-3.809997558593750},&#34;opacity&#34;:1.0,&#34;blendMode&#34;:&#34;NORMAL&#34;,&#34;visible&#34;:true}" mask="url(#path-1-inside-1_1_1475)"/>
<defs>
<clipPath id="paint0_diamond_1_1475_clip_path"><path d="M0.280029 0.190002V-3.81H-3.71997V0.190002H0.280029ZM8.28003 0.190002H12.28V-3.81H8.28003V0.190002ZM0.280029 4.19H8.28003V-3.81H0.280029V4.19ZM4.28003 0.190002V4.19H12.28V0.190002H4.28003ZM4.28003 4.19V0.190002H-3.71997V4.19H4.28003Z" mask="url(#path-1-inside-1_1_1475)"/></clipPath><linearGradient id="paint0_diamond_1_1475" x1="0" y1="0" x2="500" y2="500" gradientUnits="userSpaceOnUse">
<stop offset="1" stop-color="#050B20"/>
<stop offset="1" stop-opacity="0"/>
</linearGradient>
</defs>
</svg>
