<svg width="14" height="15" viewBox="0 0 14 15" fill="none" xmlns="http://www.w3.org/2000/svg">
<path d="M13.6111 0.329956H5.05557C4.84061 0.329956 4.66667 0.503899 4.66667 0.718857C4.66667 0.933815 4.84061 1.10776 5.05557 1.10776H12.6723L0.113941 13.6662C-0.0379804 13.8181 -0.0379804 14.0642 0.113941 14.2161C0.189884 14.292 0.289415 14.33 0.38891 14.33C0.488405 14.33 0.5879 14.292 0.663879 14.2161L13.2222 1.65766V9.27443C13.2222 9.48939 13.3961 9.66333 13.6111 9.66333C13.8261 9.66333 14 9.48939 14 9.27443V0.718857C14 0.503899 13.826 0.329956 13.6111 0.329956Z" fill="#050B20"/>
</svg>
