<svg width="15" height="15" viewBox="0 0 15 15" fill="none" xmlns="http://www.w3.org/2000/svg">
<path d="M14.1609 0.609985H5.60538C5.39042 0.609985 5.21648 0.783928 5.21648 0.998886C5.21648 1.21384 5.39042 1.38779 5.60538 1.38779H13.2221L0.663746 13.9462C0.511824 14.0981 0.511824 14.3442 0.663746 14.4961C0.739689 14.572 0.83922 14.61 0.938715 14.61C1.03821 14.61 1.1377 14.572 1.21368 14.4961L13.772 1.93769V9.55446C13.772 9.76942 13.9459 9.94336 14.1609 9.94336C14.3759 9.94336 14.5498 9.76942 14.5498 9.55446V0.998886C14.5498 0.783928 14.3758 0.609985 14.1609 0.609985Z" fill="#405FF2"/>
</svg>
